<svg width="72" height="72" viewBox="0 0 72 72" fill="none" xmlns="http://www.w3.org/2000/svg">
<path d="M31.1984 46.8004C31.1984 47.4604 30.6584 48.0004 29.9984 48.0004C29.3384 48.0004 28.7984 47.4604 28.7984 46.8004V43.3564H25.1984V46.8004C25.1984 47.4604 24.6584 48.0004 23.9984 48.0004C23.3384 48.0004 22.7984 47.4604 22.7984 46.8004V43.3564H19.1984V46.8004C19.1984 47.4604 18.6584 48.0004 17.9984 48.0004C17.3384 48.0004 16.7984 47.4604 16.7984 46.8004V43.3564H14.3984V57.6004H16.7984V54.1564C16.7984 53.4964 17.3384 52.9564 17.9984 52.9564C18.6584 52.9564 19.1984 53.4964 19.1984 54.1564V57.6004H22.7984V54.1564C22.7984 53.4964 23.3384 52.9564 23.9984 52.9564C24.6584 52.9564 25.1984 53.4964 25.1984 54.1564V57.6004H28.7984V54.1564C28.7984 53.4964 29.3384 52.9564 29.9984 52.9564C30.6584 52.9564 31.1984 53.4964 31.1984 54.1564V57.6004H33.5984V43.3564H31.1984V46.8004Z" fill="#4A9EFF"/>
<path d="M38.1712 39.6122L34.7872 36.2282C34.0912 35.5442 33.7072 34.6322 33.7192 33.6602C33.7192 32.7362 34.0792 31.8602 34.7152 31.2002C32.7712 31.1522 31.1992 29.5562 31.1992 27.6002V22.8002C31.1992 20.8442 32.7712 19.2362 34.7272 19.2002C34.0912 18.5522 33.7192 17.6642 33.7192 16.7042C33.7192 15.7322 34.1032 14.8202 34.8112 14.1482L38.1592 10.7762C38.8312 10.1042 39.7672 9.7202 40.7152 9.7202H40.7992V8.4002C40.7992 7.7282 40.2592 7.2002 39.5992 7.2002H21.5992C21.2872 7.2002 20.9752 7.3202 20.7472 7.5482L7.54722 20.7482C7.33122 20.9762 7.19922 21.2762 7.19922 21.6002V63.6002C7.19922 64.2602 7.73922 64.8002 8.39922 64.8002H39.5992C40.2592 64.8002 40.7992 64.2602 40.7992 63.6002V40.6562H40.7152C39.7552 40.6562 38.8312 40.2842 38.1712 39.6122ZM35.9992 58.8002C35.9992 59.4602 35.4592 60.0002 34.7992 60.0002H13.1992C12.5392 60.0002 11.9992 59.4602 11.9992 58.8002V42.1562C11.9992 41.4962 12.5392 40.9562 13.1992 40.9562H34.7992C35.4592 40.9562 35.9992 41.4962 35.9992 42.1562V58.8002Z" fill="url(#paint0_linear_4335_1897)"/>
<path d="M63.6016 21.5996H60.6376C60.4336 20.9276 60.1696 20.2796 59.8336 19.6556L61.9336 17.5556C62.4016 17.0876 62.4016 16.3316 61.9336 15.8636L58.5376 12.4676C58.0816 12.0236 57.2896 12.0236 56.8336 12.4676L54.7456 14.5676C54.1216 14.2316 53.4736 13.9676 52.8016 13.7516V10.7996C52.8016 10.1276 52.2616 9.59961 51.6016 9.59961H46.8016C46.1416 9.59961 45.6016 10.1276 45.6016 10.7996V13.7516C44.9296 13.9676 44.2816 14.2316 43.6576 14.5676L41.5696 12.4676C41.3416 12.2396 41.0416 12.1196 40.7176 12.1196C40.4056 12.1196 40.0936 12.2396 39.8656 12.4676L36.4816 15.8636C36.0016 16.3316 36.0016 17.0876 36.4816 17.5556L38.5696 19.6556C38.2456 20.2796 37.9696 20.9276 37.7656 21.5996H34.8016C34.1416 21.5996 33.6016 22.1276 33.6016 22.7996V27.5996C33.6016 28.2596 34.1416 28.7996 34.8016 28.7996H37.7656C37.9696 29.4716 38.2456 30.1196 38.5696 30.7436L36.4816 32.8316C36.0016 33.2996 36.0016 34.0556 36.4816 34.5356L39.8656 37.9196C40.3216 38.3756 41.1136 38.3756 41.5696 37.9196L43.6576 35.8316C44.2816 36.1556 44.9296 36.4316 45.6016 36.6356V39.5996C45.6016 40.2596 46.1416 40.7996 46.8016 40.7996H51.6016C52.2616 40.7996 52.8016 40.2596 52.8016 39.5996V36.6356C53.4736 36.4316 54.1216 36.1556 54.7456 35.8316L56.8336 37.9196C57.0616 38.1476 57.3736 38.2796 57.6856 38.2796C58.0096 38.2796 58.3096 38.1476 58.5376 37.9196L61.9336 34.5356C62.4016 34.0556 62.4016 33.2996 61.9336 32.8316L59.8336 30.7436C60.1696 30.1196 60.4336 29.4596 60.6496 28.7996H63.6016C64.2616 28.7996 64.8016 28.2596 64.8016 27.5996V22.7996C64.8016 22.1276 64.2616 21.5996 63.6016 21.5996ZM49.2016 29.9996C46.5616 29.9996 44.4016 27.8396 44.4016 25.1996C44.4016 22.5476 46.5616 20.3996 49.2016 20.3996C51.8536 20.3996 54.0016 22.5476 54.0016 25.1996C54.0016 27.8396 51.8536 29.9996 49.2016 29.9996Z" fill="url(#paint1_linear_4335_1897)"/>
<defs>
<linearGradient id="paint0_linear_4335_1897" x1="23.9992" y1="7.2002" x2="23.9992" y2="64.8002" gradientUnits="userSpaceOnUse">
<stop stop-color="#3E92F2"/>
<stop offset="1" stop-color="#C2DFFF"/>
</linearGradient>
<linearGradient id="paint1_linear_4335_1897" x1="49.2016" y1="9.59961" x2="49.2016" y2="40.7996" gradientUnits="userSpaceOnUse">
<stop stop-color="#75B6FF"/>
<stop offset="1" stop-color="#4496F3"/>
</linearGradient>
</defs>
</svg>
