<svg width="72" height="72" viewBox="0 0 72 72" fill="none" xmlns="http://www.w3.org/2000/svg">
<g clip-path="url(#clip0_4335_1908)">
<path d="M36 71.7188C55.7269 71.7188 71.7188 55.7269 71.7188 36C71.7188 16.2731 55.7269 0.28125 36 0.28125C16.2731 0.28125 0.28125 16.2731 0.28125 36C0.28125 55.7269 16.2731 71.7188 36 71.7188Z" fill="url(#paint0_linear_4335_1908)"/>
<path d="M19.5766 65.7C27.0013 65.7 33.0203 59.681 33.0203 52.2563C33.0203 44.8315 27.0013 38.8125 19.5766 38.8125C12.1518 38.8125 6.13281 44.8315 6.13281 52.2563C6.13281 59.681 12.1518 65.7 19.5766 65.7Z" fill="url(#paint1_linear_4335_1908)"/>
<path d="M19.5758 66.8811C11.4758 66.8811 4.89453 60.2998 4.89453 52.1998C4.89453 44.0998 11.4758 37.5186 19.5758 37.5186C27.6758 37.5186 34.257 44.0998 34.257 52.1998C34.257 60.3561 27.6758 66.8811 19.5758 66.8811ZM19.5758 39.9936C12.8258 39.9936 7.31328 45.5061 7.31328 52.2561C7.31328 59.0061 12.8258 64.5186 19.5758 64.5186C26.3258 64.5186 31.8383 59.0061 31.8383 52.2561C31.8383 45.5061 26.3258 39.9936 19.5758 39.9936Z" fill="#5BA7FF"/>
<path d="M20.8125 6.30039L12.9375 14.1754V40.5004C14.9062 39.3754 17.1563 38.7566 19.5188 38.7566C23.85 38.7566 27.675 40.7816 30.15 43.9316H65.8125V6.24414H20.8125V6.30039Z" fill="url(#paint2_linear_4335_1908)"/>
<path d="M65.8687 45.1688H30.2063C29.8125 45.1688 29.475 45 29.25 44.7188C26.8875 41.6813 23.4 39.9937 19.575 39.9937C17.4937 39.9937 15.4125 40.5563 13.5563 41.5688C13.1625 41.7938 12.7125 41.7938 12.375 41.5688C12.0375 41.3438 11.8125 40.95 11.8125 40.5V14.1188C11.8125 13.7812 11.925 13.5 12.15 13.275L20.025 5.4C20.25 5.175 20.5312 5.0625 20.8687 5.0625H65.925C66.6 5.0625 67.1063 5.625 67.1063 6.24375V43.9312C67.05 44.6625 66.5438 45.1688 65.8687 45.1688ZM30.7688 42.8062H64.6875V7.48125H21.3188L14.175 14.625V38.6437C15.8625 37.9688 17.7187 37.6313 19.575 37.6313C23.9062 37.575 27.9563 39.4875 30.7688 42.8062Z" fill="#5BA7FF"/>
<path d="M55.2938 13.2188H35.55C34.425 13.2188 33.4688 14.175 33.4688 15.3V35.0437C33.4688 36.1687 34.425 37.125 35.55 37.125H55.2938C56.4188 37.125 57.375 36.1687 57.375 35.0437V15.3C57.375 14.1188 56.4188 13.2188 55.2938 13.2188Z" fill="#DEEDFF"/>
<path d="M55.2953 37.9684H35.5516C33.9203 37.9684 32.5703 36.6184 32.5703 34.9871V15.2996C32.5703 13.6684 33.9203 12.3184 35.5516 12.3184H55.2953C56.9266 12.3184 58.2766 13.6684 58.2766 15.2996V35.0434C58.2203 36.6184 56.9266 37.9684 55.2953 37.9684ZM35.5516 14.1184C34.8766 14.1184 34.3703 14.6246 34.3703 15.2996V35.0434C34.3703 35.7184 34.8766 36.2246 35.5516 36.2246H55.2953C55.9703 36.2246 56.4766 35.7184 56.4766 35.0434V15.2996C56.4766 14.6246 55.9703 14.1184 55.2953 14.1184H35.5516Z" fill="#5BA7FF"/>
<path d="M48.7703 25.1434H33.4703C32.9641 25.1434 32.5703 24.7496 32.5703 24.2434C32.5703 23.7371 32.9641 23.3434 33.4703 23.3434H47.8703V13.2184C47.8703 12.7121 48.2641 12.3184 48.7703 12.3184C49.2766 12.3184 49.6703 12.7121 49.6703 13.2184V24.2996C49.6703 24.7496 49.2203 25.1434 48.7703 25.1434ZM45.9578 37.9684C45.4516 37.9684 45.0578 37.5746 45.0578 37.0684V31.9496H33.4703C32.9641 31.9496 32.5703 31.5559 32.5703 31.0496C32.5703 30.5434 32.9641 30.1496 33.4703 30.1496H45.9578C46.4641 30.1496 46.8578 30.5434 46.8578 31.0496V37.0121C46.8578 37.5746 46.4641 37.9684 45.9578 37.9684Z" fill="#5BA7FF"/>
<path d="M39.7125 37.9684C39.2062 37.9684 38.8125 37.5746 38.8125 37.0684V31.1059C38.8125 30.5996 39.2062 30.2059 39.7125 30.2059C40.2187 30.2059 40.6125 30.5996 40.6125 31.1059V37.0684C40.6125 37.5746 40.2187 37.9684 39.7125 37.9684ZM41.1187 25.1434C40.6125 25.1434 40.2188 24.7496 40.2188 24.2434V13.2184C40.2188 12.7121 40.6125 12.3184 41.1187 12.3184C41.625 12.3184 42.0187 12.7121 42.0187 13.2184V24.2996C42.0187 24.7496 41.625 25.1434 41.1187 25.1434Z" fill="#5BA7FF"/>
<path d="M49.8375 37.9688C49.3312 37.9688 48.9375 37.575 48.9375 37.0688V27.45C48.9375 26.9438 49.3312 26.55 49.8375 26.55H57.375C57.8813 26.55 58.275 26.9438 58.275 27.45C58.275 27.9563 57.8813 28.35 57.375 28.35H50.7375V37.125C50.7375 37.575 50.3437 37.9688 49.8375 37.9688Z" fill="#5BA7FF"/>
<path d="M52.482 28.2934C51.9758 28.2934 51.582 27.8996 51.582 27.3934V13.2184C51.582 12.7121 51.9758 12.3184 52.482 12.3184C52.9883 12.3184 53.382 12.7121 53.382 13.2184V27.4496C53.382 27.8996 52.9883 28.2934 52.482 28.2934Z" fill="#5BA7FF"/>
<path d="M26.0993 47.3627C20.9806 46.9127 19.5743 44.0439 19.5743 44.0439C19.5743 44.0439 18.1118 46.9127 13.0493 47.3627C13.0493 47.3627 12.0368 57.0377 19.5743 60.4689C27.1118 57.0939 26.0993 47.3627 26.0993 47.3627Z" fill="#CFE5FF"/>
<path d="M19.5762 61.6498C19.4074 61.6498 19.2387 61.5936 19.0699 61.5373C10.8574 57.8248 11.8137 47.6998 11.8699 47.2498C11.9262 46.6873 12.3762 46.2373 12.9387 46.1811C17.2137 45.7873 18.5074 43.5936 18.5074 43.4811C18.7324 43.0873 19.1262 42.8623 19.5762 42.8623C20.0262 42.8623 20.4199 43.0873 20.6449 43.5373C20.7012 43.5936 21.9387 45.7873 26.2137 46.2373C26.7762 46.2936 27.2262 46.7436 27.2824 47.3061C27.3387 47.7561 28.2949 57.8811 20.0262 61.5936C19.9137 61.6498 19.7449 61.6498 19.5762 61.6498ZM14.1762 48.4311C14.1199 50.7373 14.5699 56.5311 19.5762 59.1186C24.5824 56.5311 24.9762 50.6811 24.9762 48.4311C22.2199 47.9811 20.5324 46.8561 19.5762 45.9561C18.6199 46.8561 16.9324 47.9811 14.1762 48.4311Z" fill="#5BA7FF"/>
</g>
<defs>
<linearGradient id="paint0_linear_4335_1908" x1="36" y1="0.28125" x2="36" y2="71.7188" gradientUnits="userSpaceOnUse">
<stop stop-color="#4898F4"/>
<stop offset="1" stop-color="#B6D7FF"/>
</linearGradient>
<linearGradient id="paint1_linear_4335_1908" x1="19.5766" y1="38.8125" x2="19.5766" y2="65.7" gradientUnits="userSpaceOnUse">
<stop stop-color="#B1D4FF"/>
<stop offset="1" stop-color="#509DF6"/>
</linearGradient>
<linearGradient id="paint2_linear_4335_1908" x1="39.375" y1="6.24414" x2="39.375" y2="43.9316" gradientUnits="userSpaceOnUse">
<stop stop-color="#B4D6FF"/>
<stop offset="1" stop-color="#4999F5"/>
</linearGradient>
<clipPath id="clip0_4335_1908">
<rect width="72" height="72" fill="white"/>
</clipPath>
</defs>
</svg>
