<svg width="73" height="64" viewBox="0 0 73 64" fill="none" xmlns="http://www.w3.org/2000/svg">
<path d="M48.5 1.48828L59 10.4185V61.0232H14V1.48828C14.669 1.48828 47.4154 1.48828 48.5 1.48828Z" fill="#C4D3D6"/>
<path d="M41 37.2092V46.1395H36.5H27.5V37.2092H41Z" fill="#F47B00"/>
<path d="M27.5 37.2092H20V46.1395H27.5V37.2092Z" fill="#F4AC03"/>
<path d="M53 30.7603V37.2094H41V26.7908H48.9995C51.209 26.7908 53 28.5679 53 30.7603Z" fill="#F4AC03"/>
<path d="M36.5 46.1396H27.5V55.0699H36.5V46.1396Z" fill="#F4AC03"/>
<path d="M53 46.1396V51.1004C53 53.2926 51.209 55.0699 48.9995 55.0699H36.5V46.1396H41H53Z" fill="#F4AC03"/>
<path d="M27.5 46.1396V55.0699H24.0005C21.791 55.0699 20 53.2928 20 51.1004V46.1396H27.5Z" fill="#F47B00"/>
<path d="M53 37.2092H41V46.1395H53V37.2092Z" fill="#FFD432"/>
<path d="M41 26.7908V37.2094H27.5H20V30.7603C20 28.5679 21.791 26.7908 24.0005 26.7908H41Z" fill="#FFD432"/>
<path d="M67.25 16.3721C69.3215 16.3721 71 18.0376 71 20.093C71 22.1484 69.3215 23.8139 67.25 23.8139C65.1785 23.8139 63.5 22.1484 63.5 20.093C63.5 18.0376 65.1785 16.3721 67.25 16.3721Z" fill="#4A78FF"/>
<path d="M69.0605 34.6688C69.332 34.9383 69.5 35.3104 69.5 35.721C69.5 36.1317 69.332 36.5039 69.0605 36.7733C68.7889 37.0427 68.4139 37.2094 68 37.2094C67.172 37.2094 66.5 36.5426 66.5 35.721C66.5 35.3102 66.668 34.9382 66.9395 34.6688C67.2111 34.3994 67.5862 34.2327 68 34.2327C68.4139 34.2327 68.789 34.3994 69.0605 34.6688Z" fill="url(#paint0_linear_4335_3503)"/>
<path d="M65.75 52.093C66.992 52.093 68 53.0932 68 54.3256C68 55.5579 66.992 56.5581 65.75 56.5581C64.508 56.5581 63.5 55.5579 63.5 54.3256C63.5 53.0932 64.508 52.093 65.75 52.093Z" fill="#4A78FF"/>
<path d="M63.0605 1.92437C63.332 2.19377 63.5 2.56586 63.5 2.97665C63.5 3.38744 63.332 3.75954 63.0605 4.02893C62.789 4.29833 62.414 4.46503 62 4.46503C61.172 4.46503 60.5 3.79823 60.5 2.97665C60.5 2.56586 60.668 2.19377 60.9395 1.92437C61.211 1.65498 61.586 1.48828 62 1.48828C62.414 1.48828 62.789 1.65498 63.0605 1.92437ZM22.5605 16.8081C22.832 17.0775 23 17.4496 23 17.8604C23 18.2712 22.832 18.6433 22.5605 18.9127C22.289 19.182 21.914 19.3487 21.5 19.3487C20.672 19.3487 20 18.682 20 17.8604C20 17.4496 20.168 17.0775 20.4395 16.8081C20.711 16.5387 21.086 16.372 21.5 16.372C21.914 16.372 22.289 16.5387 22.5605 16.8081ZM10.5605 61.4593C10.832 61.7287 11 62.1007 11 62.5115C11 62.9223 10.832 63.2944 10.5605 63.5638C10.289 63.8332 9.914 63.9999 9.5 63.9999C8.672 63.9999 8 63.3331 8 62.5115C8 62.1007 8.168 61.7287 8.4395 61.4593C8.711 61.1899 9.086 61.0232 9.5 61.0232C9.914 61.0232 10.289 61.1899 10.5605 61.4593ZM9.0605 13.8314C9.332 14.1007 9.5 14.4728 9.5 14.8836C9.5 15.2944 9.332 15.6665 9.0605 15.9359C8.789 16.2053 8.414 16.372 8 16.372C7.172 16.372 6.5 15.7052 6.5 14.8836C6.5 14.4728 6.668 14.1007 6.9395 13.8314C7.211 13.562 7.586 13.3953 8 13.3953C8.414 13.3953 8.789 13.562 9.0605 13.8314ZM7.5605 31.6918C7.832 31.9612 8 32.3333 8 32.7441C8 33.1549 7.832 33.527 7.5605 33.7964C7.289 34.0658 6.914 34.2325 6.5 34.2325C5.672 34.2325 5 33.5657 5 32.7441C5 32.3333 5.168 31.9612 5.4395 31.6918C5.711 31.4224 6.086 31.2557 6.5 31.2557C6.914 31.2557 7.289 31.4224 7.5605 31.6918Z" fill="url(#paint1_linear_4335_3503)"/>
<path d="M5 41.6743C6.6575 41.6743 8 43.0064 8 44.6511C8 46.2957 6.6575 47.6278 5 47.6278C3.3425 47.6278 2 46.2957 2 44.6511C2 43.0064 3.3425 41.6743 5 41.6743Z" fill="#4A78FF"/>
<path d="M59 62.5116H14C13.1716 62.5116 12.5 61.8451 12.5 61.0233V1.48837C12.5 0.666344 13.1716 0 14 0H48.5C48.8581 0 49.2043 0.127107 49.4762 0.358251L59.9762 9.28848C60.3088 9.57127 60.5 9.984 60.5 10.4186V61.0233C60.5 61.8451 59.8283 62.5116 59 62.5116ZM15.5 59.5349H57.5V11.1031L47.9452 2.97674H15.5V59.5349Z" fill="url(#paint2_linear_4335_3503)"/>
<path d="M48.9995 56.5581H24.0005C20.9675 56.5581 18.5 54.1097 18.5 51.1002V30.7601C18.5 27.7506 20.9675 25.3022 24.0005 25.3022H48.9995C52.0325 25.3022 54.5 27.7506 54.5 30.7601V51.1002C54.5 54.1097 52.0325 56.5581 48.9995 56.5581ZM24.0005 28.279C22.6217 28.279 21.5 29.392 21.5 30.7601V51.1002C21.5 52.4682 22.6217 53.5813 24.0005 53.5813H48.9995C50.3781 53.5813 51.5 52.4682 51.5 51.1002V30.7601C51.5 29.392 50.3781 28.279 48.9995 28.279H24.0005Z" fill="black"/>
<path d="M27.5 56.5582C26.6716 56.5582 26 55.8917 26 55.0698V37.2093C26 36.3874 26.6716 35.7209 27.5 35.7209C28.3284 35.7209 29 36.3874 29 37.2093V55.0698C29 55.8917 28.3284 56.5582 27.5 56.5582Z" fill="black"/>
<path d="M53 38.6977H20C19.1716 38.6977 18.5 38.0312 18.5 37.2093C18.5 36.3874 19.1716 35.7209 20 35.7209H53C53.8283 35.7209 54.5 36.3874 54.5 37.2093C54.5 38.0312 53.8283 38.6977 53 38.6977Z" fill="black"/>
<path d="M41 47.6278C40.1717 47.6278 39.5 46.9613 39.5 46.1395V26.7906C39.5 25.9686 40.1717 25.3022 41 25.3022C41.8283 25.3022 42.5 25.9686 42.5 26.7906V46.1395C42.5 46.9613 41.8283 47.6278 41 47.6278Z" fill="black"/>
<path d="M36.5 56.5581C35.6716 56.5581 35 55.8916 35 55.0697V46.1395C35 45.3176 35.6716 44.6511 36.5 44.6511H53C53.8283 44.6511 54.5 45.3176 54.5 46.1395C54.5 46.9614 53.8283 47.6279 53 47.6279H38V55.0697C38 55.8916 37.3283 56.5581 36.5 56.5581Z" fill="black"/>
<path d="M36.5 47.6279H20C19.1716 47.6279 18.5 46.9614 18.5 46.1395C18.5 45.3177 19.1716 44.6512 20 44.6512H36.5C37.3283 44.6512 38 45.3177 38 46.1395C38 46.9614 37.3283 47.6279 36.5 47.6279ZM5 49.1163C2.5187 49.1163 0.5 47.1132 0.5 44.6512C0.5 42.1891 2.5187 40.186 5 40.186C7.4813 40.186 9.5 42.1891 9.5 44.6512C9.5 47.1132 7.4813 49.1163 5 49.1163ZM5 43.1628C4.1729 43.1628 3.5 43.8305 3.5 44.6512C3.5 45.4719 4.1729 46.1395 5 46.1395C5.8271 46.1395 6.5 45.4719 6.5 44.6512C6.5 43.8305 5.8271 43.1628 5 43.1628ZM65.75 58.0465C63.6823 58.0465 62 56.3773 62 54.3256C62 52.2739 63.6823 50.6047 65.75 50.6047C67.8177 50.6047 69.5 52.2739 69.5 54.3256C69.5 56.3773 67.8177 58.0465 65.75 58.0465ZM65.75 53.5814C65.3365 53.5814 65 53.9152 65 54.3256C65 54.7359 65.3365 55.0698 65.75 55.0698C66.1636 55.0698 66.5 54.7359 66.5 54.3256C66.5 53.9152 66.1636 53.5814 65.75 53.5814ZM67.25 25.3023C64.3552 25.3023 62 22.9654 62 20.093C62 17.2206 64.3552 14.8837 67.25 14.8837C70.1449 14.8837 72.5 17.2206 72.5 20.093C72.5 22.9654 70.1449 25.3023 67.25 25.3023ZM67.25 17.8605C66.0094 17.8605 65 18.862 65 20.093C65 21.3241 66.0094 22.3256 67.25 22.3256C68.4907 22.3256 69.5 21.3241 69.5 20.093C69.5 18.862 68.4907 17.8605 67.25 17.8605ZM21.5 14.8837C20.6716 14.8837 20 14.2174 20 13.3953V1.48837C20 0.666344 20.6716 0 21.5 0C22.3285 0 23 0.666344 23 1.48837V13.3953C23 14.2174 22.3285 14.8837 21.5 14.8837ZM29 14.8837C28.1716 14.8837 27.5 14.2174 27.5 13.3953V8.93023C27.5 8.1082 28.1716 7.44186 29 7.44186C29.8285 7.44186 30.5 8.1082 30.5 8.93023V13.3953C30.5 14.2174 29.8285 14.8837 29 14.8837Z" fill="url(#paint3_linear_4335_3503)"/>
<defs>
<linearGradient id="paint0_linear_4335_3503" x1="66.0442" y1="35.1532" x2="69.3639" y2="37.2334" gradientUnits="userSpaceOnUse">
<stop stop-color="white" stop-opacity="0.3"/>
<stop offset="1" stop-color="white" stop-opacity="0.2"/>
</linearGradient>
<linearGradient id="paint1_linear_4335_3503" x1="-3.88875" y1="20.82" x2="63.4628" y2="60.0088" gradientUnits="userSpaceOnUse">
<stop stop-color="white" stop-opacity="0.3"/>
<stop offset="1" stop-color="white" stop-opacity="0.2"/>
</linearGradient>
<linearGradient id="paint2_linear_4335_3503" x1="5.20667" y1="19.3317" x2="65.4482" y2="48.0921" gradientUnits="userSpaceOnUse">
<stop stop-color="white" stop-opacity="0.3"/>
<stop offset="1" stop-color="white" stop-opacity="0.2"/>
</linearGradient>
<linearGradient id="paint3_linear_4335_3503" x1="-10.44" y1="17.9509" x2="59.1364" y2="71.6092" gradientUnits="userSpaceOnUse">
<stop stop-color="white" stop-opacity="0.3"/>
<stop offset="1" stop-color="white" stop-opacity="0.2"/>
</linearGradient>
</defs>
</svg>
