<svg width="73" height="72" viewBox="0 0 73 72" fill="none" xmlns="http://www.w3.org/2000/svg">
<g clip-path="url(#clip0_4335_3468)">
<path d="M63.062 15.438L48.056 0.438C47.7734 0.157969 47.3918 0.00059741 46.994 0L15.5 0C12.191 0 9.5 2.691 9.5 6V66C9.5 69.309 12.191 72 15.5 72H57.5C60.809 72 63.5 69.309 63.5 66V16.5C63.4994 16.1022 63.342 15.7206 63.062 15.438Z" fill="#303C42"/>
<path d="M60.5 66C60.5 67.653 59.153 69 57.5 69H15.5C13.847 69 12.5 67.653 12.5 66V6C12.5 4.347 13.847 3 15.5 3H46.373L60.5 17.121V66Z" fill="#E6E6E6"/>
<path opacity="0.5" d="M18.5 6H49.373L60.5 17.121L46.373 3H15.5C13.847 3 12.5 4.347 12.5 6V66C12.5 67.653 13.847 69 15.5 69V9C15.5 7.347 16.847 6 18.5 6Z" fill="white"/>
<path d="M18.5 31.5V58.5C18.5 60.981 20.519 63 23 63H50C52.481 63 54.5 60.981 54.5 58.5V31.5C54.5 29.019 52.481 27 50 27H23C20.519 27 18.5 29.019 18.5 31.5Z" fill="#303C42"/>
<path d="M23 30H29V37.5H21.5V31.5C21.5 31.1022 21.658 30.7206 21.9393 30.4393C22.2206 30.158 22.6022 30 23 30ZM32 30H41V37.5H32V30ZM21.5 58.5V52.5H29V60H23C22.6022 60 22.2206 59.842 21.9393 59.5607C21.658 59.2794 21.5 58.8978 21.5 58.5ZM32 52.5H41V60H32V52.5Z" fill="#FFCA28"/>
<path d="M50 60H44V51C44 50.6022 43.842 50.2206 43.5607 49.9393C43.2794 49.658 42.8978 49.5 42.5 49.5H21.5V40.5H51.5V58.5C51.5 58.8978 51.342 59.2794 51.0607 59.5607C50.7794 59.842 50.3978 60 50 60ZM51.5 31.5V37.5H44V30H50C50.3978 30 50.7794 30.158 51.0607 30.4393C51.342 30.7206 51.5 31.1022 51.5 31.5Z" fill="#FFCA28"/>
<path opacity="0.2" d="M21.5 49.5H23V40.5H21.5V49.5ZM21.5 58.5C21.5 58.8978 21.658 59.2794 21.9393 59.5607C22.2206 59.842 22.6022 60 23 60V52.5H21.5V58.5ZM32 31.5H41V30H32V31.5ZM21.5 31.5V37.5H23V33C23 32.6022 23.158 32.2206 23.4393 31.9393C23.7206 31.658 24.1022 31.5 24.5 31.5H29V30H23C22.6022 30 22.2206 30.158 21.9393 30.4393C21.658 30.7206 21.5 31.1022 21.5 31.5ZM50 30H44V31.5H51.5C51.5 31.1022 51.342 30.7206 51.0607 30.4393C50.7794 30.158 50.3978 30 50 30Z" fill="white"/>
<path d="M53.4166 28.5901L53.4136 28.6021C54.0796 29.3881 54.4996 30.3901 54.4996 31.5001V58.5001C54.4996 60.9811 52.4806 63.0001 49.9996 63.0001H22.9996C21.8506 63.0001 20.8126 62.5561 20.0176 61.8451L27.1726 69.0001H57.4996C59.1526 69.0001 60.4996 67.6531 60.4996 66.0001V35.6731L53.4166 28.5901Z" fill="url(#paint0_linear_4335_3468)"/>
<path d="M63.062 15.438L48.056 0.438C47.7734 0.157969 47.3918 0.00059741 46.994 0L15.5 0C12.191 0 9.5 2.691 9.5 6V66C9.5 69.309 12.191 72 15.5 72H57.5C60.809 72 63.5 69.309 63.5 66V16.5C63.4994 16.1022 63.342 15.7206 63.062 15.438Z" fill="url(#paint1_linear_4335_3468)"/>
</g>
<defs>
<linearGradient id="paint0_linear_4335_3468" x1="36.6796" y1="45.1801" x2="59.6206" y2="68.1211" gradientUnits="userSpaceOnUse">
<stop stop-opacity="0.1"/>
<stop offset="1" stop-opacity="0"/>
</linearGradient>
<linearGradient id="paint1_linear_4335_3468" x1="1.295" y1="22.266" x2="69.65" y2="54.141" gradientUnits="userSpaceOnUse">
<stop stop-color="white" stop-opacity="0.3"/>
<stop offset="1" stop-color="white" stop-opacity="0.2"/>
</linearGradient>
<clipPath id="clip0_4335_3468">
<rect width="72" height="72" fill="white" transform="translate(0.5)"/>
</clipPath>
</defs>
</svg>
