<svg width="73" height="68" viewBox="0 0 73 68" fill="none" xmlns="http://www.w3.org/2000/svg">
<path d="M20.0154 0H41.0071V33.1075L38.0123 36.1392V3.03167H20.5497L3.52292 17.1417V58.9333H37.2531L36.4798 60.5625L37.8858 61.965H0.5V15.725L1.0624 15.2717L19.0593 0.354166L20.0154 0Z" fill="url(#paint0_linear_4335_3486)"/>
<path d="M7.92201 24.1826H34.9174V44.3985L33.5114 44.8943V53.3376L34.9174 53.8335V55.916H6.43164V24.1826H7.92201ZM31.9226 27.2001H9.42644V52.8985H31.9226V27.2001Z" fill="#333333"/>
<path d="M15.2349 33.1641H27.2703V46.9341H13.7305V33.1641H15.2349ZM24.2615 36.1957H16.7253V43.9024H24.2615V36.1957Z" fill="#333333"/>
<path d="M22.0119 45.4183V54.3999H19.0311V45.4324L22.0119 45.4183ZM22.0119 25.6982V34.6799H19.0311V25.6982H22.0119ZM27.2703 45.4183V54.3999H24.2615V45.4324L27.2703 45.4183ZM27.2703 25.6982V34.6799H24.2615V25.6982H27.2703ZM16.7253 45.4183V54.3999H13.7305V45.4324L16.7253 45.4183ZM16.7253 25.6982V34.6799H13.7305V25.6982H16.7253Z" fill="#333333"/>
<path d="M23.1352 33.1642H34.3832V36.1959H23.1352V33.1642ZM7.13477 43.9025H18.3828V46.9342H7.13477V43.9025ZM69.5054 50.1359V48.0959L66.623 47.0617L65.8779 46.7925L65.667 46.0134C65.3785 44.8931 64.9335 43.8199 64.3453 42.8259L63.9376 42.1317L64.2891 41.4234L65.6107 38.6184L64.1766 37.1734L61.4067 38.505C60.76 38.8167 60.4928 38.6467 59.9586 38.4342C59.2555 38.1225 57.0059 37.1592 56.8372 37.1167L56.0639 36.9042L55.7827 36.1534L54.7704 33.2492H52.7457L51.7193 36.1534L51.4522 36.9042L50.6789 37.1167C49.567 37.4069 48.5018 37.8553 47.5154 38.4484L46.8264 38.8592L46.1234 38.505L43.3395 37.1734L41.9054 38.6184L43.227 41.4092L43.2411 41.4659C43.5504 42.1742 43.3817 42.3584 43.1567 42.8825C42.8474 43.5909 41.8913 45.8575 41.8491 46.0134L41.6382 46.7925L40.8931 47.0759L38.0107 48.0959V50.1359L40.8931 51.17L41.6382 51.4392L41.8491 52.2184C42.1372 53.3387 42.5822 54.412 43.1708 55.4059L43.5785 56.1L43.227 56.8084L41.9054 59.6134L43.3395 61.0584L43.5926 60.945L46.1094 59.7267C46.6718 59.4575 47.0233 59.585 47.5575 59.7975C48.2606 60.1092 50.5102 61.0725 50.6789 61.115L51.4522 61.3275L51.7334 62.0784L52.7457 64.9825H54.7704L55.7968 62.0784L56.0639 61.3275L56.8372 61.115C57.949 60.8242 59.0141 60.3759 60.0007 59.7834L60.6897 59.3725L61.3927 59.7267L64.1766 61.0584L65.6107 59.6134L65.4701 59.33L64.2891 56.8225C64.05 56.3125 64.1485 55.9017 64.3594 55.3634C64.6687 54.655 65.6248 52.3884 65.667 52.2184L65.8779 51.4392L66.623 51.1559L69.5054 50.1359ZM72.5002 47.0192V52.2609L71.516 52.6292L68.2681 53.7767L67.2839 56.1425L68.1837 58.0409L68.7742 59.2875L69.2242 60.2509L68.479 61.0017L65.5545 63.9484L64.7952 64.6992L63.8391 64.2459L60.8162 62.7867C60.0269 63.1979 59.2037 63.5392 58.3557 63.8067L57.2309 66.9942L56.8794 68H50.6367L50.2711 67.0084L49.1323 63.7359C48.4152 63.4525 47.431 63.0275 46.7842 62.7442L44.8721 63.665L43.6629 64.2317L42.7068 64.6992L41.9616 63.9484L39.0371 61.0017L38.2919 60.2367L38.7419 59.2734L40.1901 56.2275C39.7819 55.4323 39.4432 54.6028 39.1777 53.7484L36.0142 52.615L35.0159 52.2609V45.9709L36.0001 45.6025L39.248 44.455C39.5292 43.7325 39.951 42.7409 40.2322 42.0892L38.7419 38.9584L38.2919 37.9809L39.0371 37.23L41.9616 34.2834L42.7209 33.5325L43.677 33.9859L46.6999 35.445C47.4891 35.0337 48.3124 34.6924 49.1604 34.425L50.2852 31.2375L50.6367 30.2317H56.8794L57.245 31.2234L58.3838 34.4959L60.7319 35.4875L63.8391 33.9859L64.7952 33.5325L65.5545 34.2834L68.479 37.23L69.2242 37.995L68.7742 38.9584L67.326 42.0042C67.7342 42.7994 68.073 43.6289 68.3384 44.4834L71.5019 45.6167L72.5002 45.9709V47.0192ZM53.758 57.5734C52.6547 57.5771 51.5615 57.3609 50.5415 56.9372C49.5214 56.5135 48.5946 55.8907 47.8144 55.1046C47.0342 54.3185 46.4161 53.3846 45.9956 52.3568C45.575 51.329 45.3605 50.2276 45.3642 49.1159C45.3605 48.0042 45.575 46.9027 45.9956 45.8749C46.4161 44.8471 47.0342 43.9133 47.8144 43.1272C48.5946 42.3411 49.5214 41.7182 50.5415 41.2945C51.5615 40.8708 52.6547 40.6546 53.758 40.6584C55.9842 40.6584 58.1193 41.5494 59.6934 43.1355C61.2676 44.7216 62.1519 46.8728 62.1519 49.1159C62.1519 51.3589 61.2676 53.5101 59.6934 55.0962C58.1193 56.6823 55.9842 57.5734 53.758 57.5734ZM49.9337 52.9692C50.6861 53.7398 51.6498 54.2663 52.7012 54.4813C53.7526 54.6963 54.8438 54.59 55.8349 54.1759C56.8259 53.7619 57.6716 53.0591 58.2635 52.1575C58.8555 51.2559 59.1666 50.1968 59.1571 49.1159C59.1549 48.2222 58.9343 47.3429 58.5147 46.5556C58.0951 45.7683 57.4894 45.0972 56.7513 44.6018C56.0132 44.1064 55.1652 43.8018 54.2825 43.715C53.3998 43.6282 52.5094 43.7618 51.6901 44.1041C50.8708 44.4464 50.1479 44.9867 49.5851 45.6774C49.0223 46.3681 48.6371 47.1879 48.4635 48.0643C48.2898 48.9406 48.3331 49.8466 48.5896 50.7021C48.846 51.5575 49.3076 52.3362 49.9337 52.9692Z" fill="url(#paint1_linear_4335_3486)"/>
<path fill-rule="evenodd" clip-rule="evenodd" d="M49.063 37.6693C48.53 37.8923 48.0132 38.1526 47.5163 38.4484L46.8274 38.8593L46.1244 38.5051L43.3405 37.1734L41.9064 38.6184L43.228 41.4093L43.2421 41.4659C43.5514 42.1743 43.3827 42.3584 43.1577 42.8826C42.8484 43.5909 41.8923 45.8576 41.8501 46.0134L41.6392 46.7926L40.894 47.0759L38.0117 48.0959V50.1359L40.894 51.1701L41.6392 51.4393L41.8501 52.2184C42.1382 53.3388 42.5832 54.4121 43.1718 55.4059L43.5795 56.1001L43.228 56.8084L41.9064 59.6134L43.3405 61.0584L43.5936 60.9451L46.1103 59.7268C46.6727 59.4576 47.0242 59.5851 47.5585 59.7976C48.2615 60.1093 50.5111 61.0726 50.6799 61.1151L51.4532 61.3276L51.7344 62.0784L52.7467 64.9826H54.7714L55.7977 62.0784L56.0649 61.3276L56.8382 61.1151C57.9499 60.8243 59.0151 60.376 60.0017 59.7834L60.6907 59.3726L61.3937 59.7268L64.1776 61.0584L65.6117 59.6134L65.4711 59.3301L64.29 56.8226C64.051 56.3126 64.1494 55.9018 64.3603 55.3634C64.6697 54.6551 65.6258 52.3884 65.6679 52.2184L65.8788 51.4393L66.624 51.1559L69.5063 50.1359V48.0959L66.624 47.0618L65.8788 46.7926L65.6679 46.0134C65.3795 44.8932 64.9345 43.82 64.3463 42.8259L63.9385 42.1318L64.29 41.4234L65.6117 38.6184L64.1776 37.1734L61.4077 38.5051C60.761 38.8168 60.4938 38.6468 59.9595 38.4343C59.2565 38.1226 57.0069 37.1593 56.8382 37.1168L56.0649 36.9043L55.7837 36.1534L54.7714 33.2493H52.7467L51.7203 36.1534L51.4532 36.9043L50.6799 37.1168C50.1286 37.2623 49.5883 37.4469 49.063 37.6693ZM47.8257 43.1376C48.6058 42.3516 49.5319 41.7281 50.5511 41.3027C51.5704 40.8773 52.6628 40.6584 53.7661 40.6584C54.8693 40.6584 55.9617 40.8773 56.981 41.3027C58.0002 41.7281 58.9263 42.3516 59.7065 43.1376C60.4866 43.9236 61.1054 44.8568 61.5276 45.8837C61.9497 46.9107 62.167 48.0114 62.167 49.123C62.167 50.2346 61.9497 51.3353 61.5276 52.3623C61.1054 53.3893 60.4866 54.3224 59.7065 55.1084C58.131 56.6959 55.9941 57.5877 53.7661 57.5877C51.538 57.5877 49.4012 56.6959 47.8257 55.1084C46.2502 53.521 45.3651 51.368 45.3651 49.123C45.3651 46.8781 46.2502 44.725 47.8257 43.1376Z" fill="#FECA5F"/>
<path fill-rule="evenodd" clip-rule="evenodd" d="M7.92425 24.1826H34.9196V44.3984L33.5136 44.8943V53.3376L34.9196 53.8334V55.9159H6.43388V24.1826H7.92425ZM27.2147 58.9334H38.0129V53.3376L36.0163 52.6293L35.0181 52.2609V45.9709L36.0023 45.6026L38.0129 44.8943V3.01758H20.5502L3.52344 17.1417V58.9334H27.2147Z" fill="#EBE5DF"/>
<path fill-rule="evenodd" clip-rule="evenodd" d="M13.7282 43.9025V27.2141H9.42578V43.9025H13.7282ZM13.7282 46.9341H9.42578V52.8841H13.7282V46.9341ZM16.723 46.9341V52.8841H19.0148V46.9341H18.3821H16.723ZM16.723 43.9025H24.2592V36.1958H16.723V43.9025ZM16.723 33.1641H19.0148V27.2141H16.723V33.1641ZM22.0096 27.2V33.1641H24.2592V27.2141L22.0096 27.2ZM24.2592 46.9341H22.0096V52.8841H24.2592V46.9341ZM27.268 45.4183V52.8841H31.9219V36.21H27.268V45.4183ZM27.268 33.1641H31.9219V27.2141H27.268V33.1641Z" fill="#FFEDDF"/>
<defs>
<linearGradient id="paint0_linear_4335_3486" x1="-5.65484" y1="19.1627" x2="47.9198" y2="40.9379" gradientUnits="userSpaceOnUse">
<stop stop-color="white" stop-opacity="0.3"/>
<stop offset="1" stop-color="white" stop-opacity="0.2"/>
</linearGradient>
<linearGradient id="paint1_linear_4335_3486" x1="-2.79714" y1="41.9115" x2="43.8839" y2="92.1435" gradientUnits="userSpaceOnUse">
<stop stop-color="white" stop-opacity="0.3"/>
<stop offset="1" stop-color="white" stop-opacity="0.2"/>
</linearGradient>
</defs>
</svg>
