<svg width="72" height="72" viewBox="0 0 72 72" fill="none" xmlns="http://www.w3.org/2000/svg">
<g clip-path="url(#clip0_4335_1878)">
<path d="M25.2131 15.4703L27.3628 20.6604C28.5931 19.9685 29.9025 19.4281 31.2626 19.0509L29.1094 13.8526C27.9424 14.6663 26.6133 15.2182 25.2131 15.4703ZM20.6603 27.363L15.4703 25.2132C15.2182 26.6134 14.6663 27.9425 13.8525 29.1095L19.051 31.2628C19.4281 29.9027 19.9685 28.5932 20.6603 27.363ZM19.051 40.7374L13.8525 42.8906C14.6663 44.0576 15.2182 45.3867 15.4703 46.7869L20.6603 44.6371C19.9686 43.4068 19.4282 42.0974 19.051 40.7374ZM25.2132 56.5297C26.6134 56.7818 27.9426 57.3337 29.1095 58.1476L31.2628 52.9491C29.9027 52.5719 28.5932 52.0315 27.3629 51.3398L25.2132 56.5297ZM46.7869 56.5297L44.6372 51.3397C43.4069 52.0315 42.0975 52.5719 40.7374 52.9491L42.8906 58.1475C44.0576 57.3337 45.3867 56.7818 46.7869 56.5297ZM51.3396 44.6371L56.5297 46.7868C56.7818 45.3866 57.3337 44.0575 58.1474 42.8905L52.949 40.7372C52.5719 42.0974 52.0315 43.4068 51.3396 44.6371ZM52.949 31.2626L58.1474 29.1094C57.3337 27.9424 56.7818 26.6133 56.5297 25.2131L51.3396 27.3628C52.0314 28.5931 52.5718 29.9026 52.949 31.2626ZM46.7868 15.4703C45.3866 15.2182 44.0574 14.6663 42.8905 13.8524L40.7372 19.0509C42.0973 19.4281 43.4068 19.9686 44.637 20.6604L46.7868 15.4703Z" fill="#4697F3"/>
<path d="M23.4517 11.4112C26.6028 11.4112 29.1572 8.85668 29.1572 5.70558C29.1572 2.55447 26.6028 0 23.4517 0C20.3006 0 17.7461 2.55447 17.7461 5.70558C17.7461 8.85668 20.3006 11.4112 23.4517 11.4112Z" fill="#4697F3"/>
<path d="M5.70558 29.1574C8.85668 29.1574 11.4112 26.6029 11.4112 23.4518C11.4112 20.3007 8.85668 17.7462 5.70558 17.7462C2.55447 17.7462 0 20.3007 0 23.4518C0 26.6029 2.55447 29.1574 5.70558 29.1574Z" fill="#4697F3"/>
<path d="M48.5484 11.4112C51.6995 11.4112 54.2539 8.85668 54.2539 5.70558C54.2539 2.55447 51.6995 0 48.5484 0C45.3972 0 42.8428 2.55447 42.8428 5.70558C42.8428 8.85668 45.3972 11.4112 48.5484 11.4112Z" fill="#4697F3"/>
<path d="M23.4517 72C26.6028 72 29.1572 69.4455 29.1572 66.2944C29.1572 63.1433 26.6028 60.5889 23.4517 60.5889C20.3006 60.5889 17.7461 63.1433 17.7461 66.2944C17.7461 69.4455 20.3006 72 23.4517 72Z" fill="#4697F3"/>
<path d="M48.5484 72C51.6995 72 54.2539 69.4455 54.2539 66.2944C54.2539 63.1433 51.6995 60.5889 48.5484 60.5889C45.3972 60.5889 42.8428 63.1433 42.8428 66.2944C42.8428 69.4455 45.3972 72 48.5484 72Z" fill="#4697F3"/>
<path d="M66.2944 29.1574C69.4455 29.1574 72 26.6029 72 23.4518C72 20.3007 69.4455 17.7462 66.2944 17.7462C63.1433 17.7462 60.5889 20.3007 60.5889 23.4518C60.5889 26.6029 63.1433 29.1574 66.2944 29.1574Z" fill="#4697F3"/>
<path d="M5.70558 54.2538C8.85668 54.2538 11.4112 51.6993 11.4112 48.5482C11.4112 45.3971 8.85668 42.8427 5.70558 42.8427C2.55447 42.8427 0 45.3971 0 48.5482C0 51.6993 2.55447 54.2538 5.70558 54.2538Z" fill="#4697F3"/>
<path d="M66.2944 54.2538C69.4455 54.2538 72 51.6993 72 48.5482C72 45.3971 69.4455 42.8427 66.2944 42.8427C63.1433 42.8427 60.5889 45.3971 60.5889 48.5482C60.5889 51.6993 63.1433 54.2538 66.2944 54.2538Z" fill="#4697F3"/>
<path d="M45.464 26.5359C42.8547 23.9268 39.4273 22.6221 36 22.6221C32.5727 22.6221 29.1451 23.9266 26.5359 26.5359C21.3175 31.7544 21.3175 40.2456 26.5359 45.4642C31.7545 50.6827 40.2456 50.6825 45.4642 45.4642C50.6825 40.2456 50.6825 31.7544 45.464 26.5359Z" fill="#4697F3"/>
</g>
<defs>
<clipPath id="clip0_4335_1878">
<rect width="72" height="72" fill="white"/>
</clipPath>
</defs>
</svg>
