<svg width="72" height="72" viewBox="0 0 72 72" fill="none" xmlns="http://www.w3.org/2000/svg">
<path d="M36 9C19.8 9 6.75 22.05 6.75 38.25C6.75 54.45 19.8 67.5 36 67.5C52.2 67.5 65.25 54.45 65.25 38.25C65.25 22.05 52.2 9 36 9ZM36 63.225C22.275 63.225 11.025 51.975 11.025 38.25C11.025 24.525 22.275 13.275 36 13.275C49.725 13.275 60.975 24.525 60.975 38.25C60.975 51.975 49.725 63.225 36 63.225ZM8.325 17.325L17.325 8.325C18.225 7.425 18.225 6.075 17.325 5.175C16.425 4.275 15.075 4.275 14.175 5.175L5.175 14.175C4.275 15.075 4.275 16.425 5.175 17.325C5.625 17.775 6.075 18 6.75 18C7.425 18 7.875 17.775 8.325 17.325ZM66.825 14.175L57.825 5.175C56.925 4.275 55.575 4.275 54.675 5.175C53.775 6.075 53.775 7.425 54.675 8.325L63.675 17.325C64.125 17.775 64.575 18 65.25 18C65.925 18 66.375 17.775 66.825 17.325C67.725 16.425 67.725 15.075 66.825 14.175Z" fill="url(#paint0_linear_4335_1868)"/>
<path d="M53.775 40.5H53.55C52.425 40.275 51.525 39.375 51.525 38.25C51.525 37.125 52.425 36.225 53.55 36H56.25C55.125 26.55 47.7 19.125 38.25 18V20.7C38.025 21.825 37.125 22.725 36 22.725C34.875 22.725 33.975 21.825 33.75 20.7V18C24.3 19.125 16.875 26.55 15.75 36H18.45C19.575 36.225 20.475 37.125 20.475 38.25C20.475 39.375 19.575 40.275 18.45 40.5H15.75C16.875 49.95 24.3 57.375 33.75 58.5V55.8C33.975 54.675 34.875 53.775 36 53.775C37.125 53.775 38.025 54.675 38.25 55.8V58.5C47.7 57.375 55.125 49.95 56.25 40.5H53.775C54 40.5 54 40.5 53.775 40.5ZM45 40.5H36C34.875 40.5 33.75 39.375 33.75 38.25V27C33.75 25.875 34.875 24.75 36 24.75C37.125 24.75 38.25 25.875 38.25 27V36H45C46.125 36 47.25 37.125 47.25 38.25C47.25 39.375 46.125 40.5 45 40.5Z" fill="url(#paint1_linear_4335_1868)"/>
<defs>
<linearGradient id="paint0_linear_4335_1868" x1="36" y1="8" x2="36" y2="66.5" gradientUnits="userSpaceOnUse">
<stop stop-color="#99C9FF"/>
<stop offset="1" stop-color="#4B9BF5"/>
</linearGradient>
<linearGradient id="paint1_linear_4335_1868" x1="36" y1="18" x2="36" y2="56.5" gradientUnits="userSpaceOnUse">
<stop stop-color="#4798F4"/>
<stop offset="1" stop-color="#B6D8FF"/>
</linearGradient>
</defs>
</svg>
