<svg width="439" height="691" viewBox="0 0 439 691" fill="none" xmlns="http://www.w3.org/2000/svg">
<path d="M438 661.152L438 28.7319C438 21.3776 435.073 14.3245 429.864 9.12381C424.654 3.92318 417.588 1.00099 410.22 0.999999L29.9043 0.999982C22.5358 1.00097 15.4694 3.92304 10.259 9.12357C5.04871 14.3241 2.12112 21.3773 2.12012 28.7319L2.12009 661.152C2.1211 668.507 5.04868 675.56 10.259 680.761C15.4693 685.961 22.5358 688.883 29.9043 688.884L410.219 688.884C417.588 688.883 424.654 685.961 429.863 680.76C435.073 675.56 438 668.507 438 661.152ZM186.628 262.212C184.36 262.219 182.113 261.776 180.017 260.91C177.922 260.043 176.02 258.77 174.421 257.164L154.088 236.883C152.485 235.283 151.214 233.384 150.347 231.293C149.479 229.203 149.033 226.962 149.033 224.7L149.033 203.115C149.033 201.425 149.706 199.803 150.904 198.608C152.102 197.412 153.727 196.74 155.421 196.74L161.061 196.74L161.061 187.556L155.435 187.556C153.742 187.556 152.117 186.884 150.919 185.689C149.721 184.493 149.048 182.872 149.048 181.181L149.048 61.0393C149.053 55.921 151.093 51.0139 154.719 47.3948C158.344 43.7756 163.261 41.7403 168.389 41.7353L170.098 41.7353C171.792 41.7353 173.417 42.407 174.615 43.6025C175.813 44.7981 176.486 46.4196 176.486 48.1104L176.486 53.7253L263.635 53.7253L263.635 48.1104C263.635 46.4196 264.308 44.7981 265.505 43.6025C266.703 42.407 268.328 41.7353 270.022 41.7353L271.731 41.7353C276.861 41.7373 281.781 43.7713 285.41 47.3906C289.039 51.0099 291.081 55.9188 291.087 61.0393L291.087 181.181C291.087 182.018 290.921 182.847 290.6 183.621C290.279 184.394 289.809 185.097 289.216 185.689C288.623 186.281 287.919 186.751 287.144 187.071C286.369 187.391 285.538 187.556 284.7 187.556L279.074 187.556L279.074 196.74L284.685 196.74C285.525 196.739 286.357 196.902 287.133 197.222C287.91 197.541 288.616 198.01 289.211 198.602C289.805 199.195 290.277 199.898 290.599 200.672C290.921 201.447 291.087 202.277 291.087 203.116L291.087 242.908C291.087 248.028 289.049 252.938 285.422 256.558C281.795 260.178 276.876 262.212 271.746 262.212L186.628 262.212Z" fill="url(#paint0_linear_4335_2223)" stroke="#0EC6FD" stroke-width="2" stroke-miterlimit="10"/>
<path d="M158.939 226.819L158.939 63.1553C158.939 61.2155 159.711 59.3552 161.085 57.9835C162.459 56.6119 164.323 55.8413 166.266 55.8413L269.613 55.8413C271.556 55.8413 273.42 56.6119 274.794 57.9835C276.168 59.3552 276.94 61.2155 276.94 63.1553L276.94 245.017C276.94 246.957 276.168 248.817 274.794 250.189C273.42 251.56 271.556 252.331 269.613 252.331L184.502 252.331C183.812 252.332 183.13 252.197 182.493 251.933C181.856 251.67 181.278 251.283 180.791 250.796L160.477 230.523C159.988 230.037 159.601 229.46 159.337 228.825C159.073 228.189 158.938 227.507 158.939 226.819Z" fill="#15C9FF" stroke="#16CAFF" stroke-miterlimit="10"/>
<path d="M161.06 224.704L161.06 61.0398C161.06 59.1 161.832 57.2397 163.206 55.868C164.58 54.4964 166.444 53.7258 168.387 53.7258L271.734 53.7258C273.677 53.7258 275.541 54.4964 276.915 55.868C278.29 57.2397 279.062 59.1 279.062 61.0398L279.062 242.909C279.063 243.87 278.875 244.822 278.507 245.711C278.139 246.6 277.6 247.407 276.919 248.088C276.239 248.768 275.43 249.308 274.541 249.676C273.651 250.044 272.697 250.234 271.734 250.234L186.623 250.234C185.933 250.235 185.251 250.1 184.614 249.836C183.977 249.573 183.399 249.186 182.912 248.699L162.598 228.408C162.109 227.922 161.722 227.345 161.458 226.709C161.194 226.073 161.059 225.392 161.06 224.704Z" fill="url(#paint1_linear_4335_2223)" stroke="#16CAFF" stroke-width="2" stroke-miterlimit="10"/>
<path d="M172.898 161.97L172.898 71.4905C172.898 69.552 173.669 67.6928 175.042 66.3213C176.414 64.9499 178.276 64.1785 180.219 64.1765L262.149 64.1765C263.112 64.176 264.065 64.3648 264.954 64.7322C265.844 65.0995 266.652 65.6382 267.333 66.3174C268.014 66.9966 268.554 67.8031 268.922 68.6907C269.291 69.5783 269.48 70.5297 269.48 71.4905L269.48 177.455C269.48 178.416 269.291 179.367 268.922 180.255C268.554 181.143 268.014 181.949 267.333 182.628C266.652 183.308 265.844 183.846 264.954 184.214C264.065 184.581 263.112 184.77 262.149 184.769L195.74 184.769C195.051 184.77 194.368 184.635 193.731 184.372C193.094 184.108 192.516 183.722 192.03 183.234L174.436 165.674C173.948 165.188 173.56 164.611 173.297 163.976C173.033 163.34 172.897 162.658 172.898 161.97Z" fill="#21AFE0" stroke="#199CC9" stroke-width="2" stroke-miterlimit="10"/>
<path d="M192.005 158.844L192.005 76.4755C192.004 75.5144 192.193 74.5625 192.561 73.6742C192.929 72.786 193.468 71.9788 194.149 71.2989C194.829 70.6189 195.637 70.0795 196.527 69.7115C197.416 69.3435 198.37 69.154 199.333 69.154L257.331 69.1541C259.275 69.1541 261.139 69.9246 262.513 71.2963C263.887 72.6679 264.659 74.5282 264.659 76.468L264.659 166.952C264.659 168.891 263.887 170.752 262.513 172.123C261.139 173.495 259.275 174.266 257.331 174.266L207.467 174.266C206.774 174.269 206.088 174.135 205.447 173.872C204.807 173.609 204.224 173.223 203.734 172.734L193.543 162.551C193.055 162.064 192.668 161.486 192.405 160.85C192.141 160.214 192.005 159.533 192.005 158.844Z" fill="#11779A" stroke="#1487AF" stroke-width="2" stroke-miterlimit="10"/>
<path d="M261.226 150.677L261.226 85.854C261.226 78.2938 255.085 72.165 247.511 72.165L209.174 72.165C201.599 72.165 195.459 78.2938 195.459 85.854L195.459 150.677C195.459 158.238 201.599 164.366 209.174 164.366L247.511 164.366C255.085 164.366 261.226 158.238 261.226 150.677Z" fill="url(#paint2_linear_4335_2223)"/>
<path d="M194.56 150.681L194.56 85.8499C194.565 81.9827 196.106 78.2753 198.846 75.5408C201.586 72.8063 205.3 71.2679 209.174 71.2629L247.515 71.2629C251.39 71.2679 255.104 72.8063 257.844 75.5408C260.584 78.2753 262.125 81.9827 262.13 85.8499L262.13 150.681C262.129 154.55 260.589 158.262 257.849 160.999C255.109 163.737 251.393 165.278 247.515 165.282L209.174 165.282C205.297 165.278 201.581 163.737 198.841 160.999C196.101 158.262 194.561 154.55 194.56 150.681ZM260.327 85.8499C260.323 82.4597 258.972 79.2095 256.57 76.8122C254.168 74.415 250.912 73.0665 247.515 73.0625L209.174 73.0625C205.778 73.0665 202.522 74.415 200.12 76.8122C197.718 79.2094 196.367 82.4597 196.363 85.8499L196.363 150.681C196.367 154.071 197.718 157.321 200.12 159.718C202.522 162.116 205.778 163.464 209.174 163.468L247.515 163.468C250.912 163.464 254.168 162.116 256.57 159.718C258.972 157.321 260.323 154.071 260.327 150.681L260.327 85.8499Z" fill="black"/>
<path d="M237.512 115.837L237.512 72.1654C237.504 72.0424 237.521 71.919 237.563 71.803C237.605 71.6869 237.67 71.5807 237.754 71.4907C237.839 71.4008 237.941 71.3291 238.054 71.2801C238.167 71.2311 238.29 71.2058 238.413 71.2058C238.537 71.2058 238.659 71.2311 238.772 71.2801C238.886 71.3291 238.988 71.4008 239.072 71.4907C239.157 71.5807 239.222 71.6869 239.263 71.803C239.305 71.919 239.323 72.0424 239.315 72.1654L239.315 115.837C239.316 116.242 239.478 116.631 239.765 116.917C240.053 117.204 240.443 117.364 240.849 117.364L246.292 117.364C246.415 117.356 246.538 117.374 246.655 117.415C246.771 117.457 246.877 117.522 246.967 117.606C247.058 117.691 247.129 117.793 247.178 117.906C247.228 118.019 247.253 118.141 247.253 118.264C247.253 118.387 247.228 118.509 247.178 118.623C247.129 118.736 247.058 118.838 246.967 118.922C246.877 119.006 246.771 119.071 246.655 119.113C246.538 119.155 246.415 119.172 246.292 119.164L240.864 119.164C239.979 119.162 239.13 118.811 238.502 118.188C237.875 117.565 237.519 116.72 237.512 115.837Z" fill="black"/>
<path d="M217.377 164.367L217.377 72.1654C217.369 72.0424 217.387 71.919 217.428 71.803C217.47 71.6869 217.535 71.5807 217.62 71.4907C217.704 71.4008 217.806 71.3291 217.919 71.2801C218.033 71.2311 218.155 71.2058 218.278 71.2058C218.402 71.2058 218.524 71.2311 218.637 71.2801C218.751 71.3291 218.853 71.4008 218.937 71.4907C219.022 71.5807 219.087 71.6869 219.129 71.803C219.17 71.919 219.188 72.0424 219.18 72.1654L219.18 164.367C219.188 164.49 219.17 164.613 219.129 164.729C219.087 164.845 219.022 164.951 218.937 165.041C218.853 165.131 218.751 165.203 218.637 165.252C218.524 165.301 218.402 165.326 218.278 165.326C218.155 165.326 218.033 165.301 217.919 165.252C217.806 165.203 217.704 165.131 217.62 165.041C217.535 164.951 217.47 164.845 217.428 164.729C217.387 164.613 217.369 164.49 217.377 164.367Z" fill="black"/>
<path d="M245.376 118.266C245.376 118.041 245.46 117.824 245.611 117.658L260.561 101.309C260.639 101.215 260.736 101.138 260.845 101.082C260.953 101.027 261.072 100.994 261.194 100.985C261.316 100.977 261.439 100.993 261.554 101.033C261.67 101.073 261.776 101.136 261.866 101.219C261.956 101.301 262.029 101.401 262.079 101.512C262.13 101.623 262.157 101.743 262.16 101.865C262.163 101.987 262.14 102.108 262.095 102.222C262.049 102.335 261.981 102.438 261.894 102.524L247.496 118.266L261.894 134.008C262.042 134.186 262.116 134.414 262.1 134.645C262.084 134.877 261.979 135.093 261.808 135.249C261.637 135.405 261.411 135.49 261.179 135.485C260.947 135.48 260.726 135.386 260.561 135.222L245.611 118.873C245.46 118.707 245.376 118.49 245.376 118.266Z" fill="black"/>
<path d="M209.51 118.266C209.51 118.027 209.605 117.798 209.773 117.629C209.942 117.46 210.171 117.365 210.41 117.364L218.275 117.364C218.398 117.356 218.522 117.373 218.638 117.415C218.754 117.457 218.861 117.522 218.951 117.606C219.041 117.69 219.113 117.792 219.162 117.905C219.211 118.018 219.236 118.14 219.236 118.264C219.236 118.387 219.211 118.509 219.162 118.622C219.113 118.735 219.041 118.837 218.951 118.921C218.861 119.006 218.754 119.071 218.638 119.112C218.522 119.154 218.398 119.171 218.275 119.164L210.41 119.164C210.171 119.164 209.942 119.069 209.773 118.901C209.605 118.732 209.51 118.504 209.51 118.266Z" fill="black"/>
<path d="M194.56 134.615C194.56 134.39 194.644 134.174 194.795 134.008L209.189 118.266L194.776 102.524C194.69 102.438 194.621 102.335 194.576 102.222C194.53 102.108 194.508 101.987 194.51 101.865C194.513 101.743 194.541 101.623 194.591 101.512C194.642 101.401 194.714 101.301 194.804 101.219C194.895 101.136 195.001 101.073 195.116 101.033C195.232 100.993 195.354 100.977 195.476 100.985C195.598 100.993 195.717 101.027 195.826 101.082C195.935 101.138 196.031 101.215 196.109 101.309L211.041 117.658C211.192 117.824 211.276 118.041 211.276 118.266C211.276 118.49 211.192 118.707 211.041 118.873L196.109 135.222C195.947 135.398 195.721 135.502 195.482 135.513C195.243 135.523 195.009 135.439 194.832 135.278C194.743 135.193 194.673 135.089 194.626 134.975C194.579 134.861 194.556 134.738 194.56 134.615Z" fill="black"/>
<path d="M217.376 104.263C217.376 104.025 217.47 103.797 217.639 103.628C217.808 103.46 218.037 103.365 218.275 103.365L238.411 103.365C238.534 103.357 238.658 103.375 238.774 103.416C238.89 103.458 238.997 103.523 239.087 103.607C239.177 103.692 239.249 103.793 239.298 103.907C239.347 104.02 239.372 104.142 239.372 104.265C239.372 104.388 239.347 104.51 239.298 104.623C239.249 104.736 239.177 104.838 239.087 104.923C238.997 105.007 238.89 105.072 238.774 105.114C238.658 105.155 238.534 105.173 238.411 105.165L218.275 105.165C218.036 105.164 217.807 105.068 217.639 104.899C217.47 104.73 217.376 104.502 217.376 104.263Z" fill="black"/>
<path d="M217.376 132.268C217.376 132.15 217.398 132.032 217.443 131.923C217.488 131.814 217.555 131.714 217.638 131.631C217.722 131.547 217.821 131.48 217.931 131.435C218.04 131.39 218.157 131.366 218.276 131.366L235.977 131.366C236.861 131.372 237.706 131.725 238.331 132.348C238.955 132.972 239.309 133.816 239.315 134.697L239.315 164.367C239.322 164.49 239.305 164.613 239.263 164.729C239.222 164.845 239.157 164.951 239.072 165.041C238.988 165.131 238.885 165.203 238.772 165.252C238.659 165.301 238.537 165.326 238.413 165.326C238.29 165.326 238.167 165.301 238.054 165.252C237.941 165.203 237.839 165.131 237.754 165.041C237.67 164.951 237.604 164.845 237.563 164.729C237.521 164.613 237.504 164.49 237.512 164.367L237.512 134.697C237.511 134.291 237.349 133.902 237.061 133.615C236.774 133.328 236.384 133.167 235.977 133.166L218.276 133.166C218.158 133.166 218.041 133.143 217.931 133.097C217.822 133.052 217.723 132.986 217.64 132.903C217.556 132.819 217.49 132.72 217.445 132.612C217.399 132.503 217.376 132.386 217.376 132.268Z" fill="black"/>
<path d="M180.543 409.892C190.74 420.069 204.571 425.787 218.992 425.787C233.413 425.787 247.244 420.069 257.441 409.892L263.179 415.619C251.458 427.317 235.56 433.89 218.984 433.89C202.408 433.89 186.511 427.317 174.79 415.619L180.543 409.892Z" fill="white"/>
<path d="M172.147 418.271C197.983 444.058 240.016 444.058 265.844 418.271L271.443 423.86C242.528 452.721 195.478 452.721 166.548 423.86L172.147 418.271Z" fill="white"/>
<path d="M178.411 446.387C178.228 446.488 178.038 446.589 177.863 446.693C170.679 442.779 164.096 437.857 158.313 432.076L163.756 426.644C170.813 433.702 179.168 439.335 188.363 443.235C188.002 443.217 187.64 443.24 187.284 443.306C184.182 443.857 181.186 444.897 178.411 446.387Z" fill="white"/>
<path d="M235.394 447.706C250.117 444.588 263.614 437.265 274.243 426.628L279.686 432.061C272.24 439.508 263.477 445.514 253.839 449.774L235.394 447.706Z" fill="white"/>
<path d="M215.308 457.047C207.667 456.725 200.102 455.388 192.814 453.072L192.814 447.941C192.815 447.262 192.668 446.591 192.384 445.974C192.1 445.357 191.685 444.809 191.168 444.368C199.501 447.519 208.311 449.23 217.22 449.428C217.177 449.55 217.141 449.675 217.111 449.801L215.308 457.047Z" fill="white"/>
<path d="M168.271 454.633C161.658 450.593 155.55 445.784 150.073 440.307L155.362 435.038C160.894 440.573 167.123 445.366 173.893 449.297C171.818 450.853 169.932 452.644 168.271 454.633Z" fill="white"/>
<path d="M261.623 450.664C269.352 446.495 276.43 441.224 282.635 435.016L287.929 440.303C283.578 444.65 278.829 448.581 273.744 452.043C273.588 452.009 273.431 451.983 273.273 451.965L261.623 450.664Z" fill="white"/>
<path d="M217.795 468.799C208.622 468.698 199.509 467.308 190.724 464.671C191.368 464.244 191.897 463.665 192.264 462.985C192.63 462.305 192.823 461.546 192.825 460.774L192.825 457.487C199.803 459.595 207.012 460.846 214.293 461.213C214.131 461.934 214.141 462.683 214.323 463.4C214.504 464.117 214.852 464.78 215.339 465.338C215.615 465.654 215.884 465.975 216.149 466.307C216.773 467.085 217.324 467.92 217.795 468.799Z" fill="white"/>
<path d="M165.661 458.168C164.337 460.213 163.212 462.379 162.301 464.637C154.858 460.102 147.983 454.697 141.823 448.537L146.97 443.399C152.605 449.03 158.877 453.986 165.661 458.168Z" fill="white"/>
<path d="M277.159 455.005C282.114 451.55 286.755 447.667 291.027 443.399L296.175 448.537C290.502 454.208 284.224 459.241 277.454 463.549L277.454 456.648C277.455 456.087 277.355 455.531 277.159 455.005Z" fill="white"/>
<path d="M235.812 471.806C239.386 471.217 242.927 470.437 246.417 469.47L254.305 470.33C255.153 470.422 255.96 470.743 256.639 471.257C257.318 471.772 257.844 472.461 258.161 473.252C251.247 475.895 244.08 477.823 236.771 479.004C236.54 477.656 236.208 476.328 235.778 475.029L235.749 474.939C235.402 473.92 235.424 472.811 235.812 471.806Z" fill="white"/>
<path d="M219 480.442C205.333 480.464 191.784 477.921 179.058 472.946C179.613 471.959 180.274 471.034 181.029 470.189C182.056 469.031 183.257 468.039 184.59 467.249C195.635 471.189 207.278 473.194 219.007 473.177C219.168 473.177 219.325 473.177 219.485 473.177L219.65 473.84C220.052 475.709 220.241 477.618 220.213 479.53C220.213 479.835 220.213 480.141 220.213 480.439C219.788 480.439 219.396 480.442 219 480.442Z" fill="white"/>
<path d="M160.784 469.037C160.089 471.441 159.589 473.897 159.291 476.381C149.88 471.019 141.232 464.422 133.579 456.764L138.581 451.775C145.236 458.426 152.695 464.225 160.784 469.037Z" fill="white"/>
<path d="M304.421 456.764C296.426 464.762 287.349 471.603 277.454 477.089L277.454 468.892C285.452 464.109 292.83 458.36 299.419 451.775L304.421 456.764Z" fill="white"/>
<path d="M237.261 483.501C244.506 482.34 251.621 480.478 258.505 477.942L258.505 485.517C251.523 487.919 244.334 489.673 237.029 490.756C237.216 489.023 237.308 487.282 237.306 485.539C237.306 484.844 237.291 484.164 237.261 483.501Z" fill="white"/>
<path d="M216.275 492.045C202.853 491.761 189.573 489.242 176.982 484.593C176.887 483.781 176.841 482.963 176.844 482.145C176.831 480.456 177.021 478.771 177.411 477.126C190.865 482.382 205.198 485.038 219.646 484.951C219.417 485.998 219.093 487.022 218.679 488.01C218.072 489.462 217.263 490.82 216.275 492.045Z" fill="white"/>
<path d="M158.942 482.249C158.932 484.732 159.095 487.212 159.431 489.671C146.827 483.306 135.321 474.976 125.345 464.995L130.198 460.151C138.701 468.658 148.38 475.907 158.942 481.675L158.942 482.249Z" fill="white"/>
<path d="M312.663 464.995C302.392 475.274 290.497 483.797 277.454 490.223L277.454 482.532C288.641 476.635 298.874 469.09 307.81 460.151L312.663 464.995Z" fill="white"/>
<path d="M207.637 497.596C204.858 498.396 201.977 498.788 199.085 498.758C196.116 498.779 193.153 498.47 190.253 497.838C187.742 497.314 185.349 496.336 183.19 494.954C181.397 493.778 179.903 492.201 178.826 490.349C189.024 493.766 199.621 495.858 210.354 496.571C209.475 496.979 208.567 497.321 207.637 497.596Z" fill="white"/>
<path d="M233.543 502.936C233.926 502.168 234.284 501.377 234.618 500.562C235.256 498.989 235.774 497.37 236.167 495.719C243.755 494.692 251.232 492.972 258.505 490.581L258.505 497.775C250.37 500.295 242.011 502.023 233.543 502.936Z" fill="white"/>
<path d="M277.454 495.771C291.853 488.998 304.963 479.781 316.202 468.531L320.909 473.229C308.389 485.766 293.657 495.887 277.454 503.085L277.454 495.771Z" fill="white"/>
<path d="M162.067 499.496C162.876 501.393 163.842 503.22 164.952 504.958C147.022 497.707 130.743 486.918 117.088 473.24L121.796 468.541C133.09 479.848 146.274 489.101 160.756 495.882C161.124 497.111 161.561 498.317 162.067 499.496Z" fill="white"/>
<path d="M221.901 515.328C223.672 514.285 225.336 513.07 226.87 511.703C228.046 510.65 229.133 509.502 230.121 508.271C239.738 507.514 249.247 505.744 258.491 502.992L258.491 509.929C246.577 513.289 234.279 515.103 221.901 515.328Z" fill="white"/>
<path d="M277.453 508.665C295.069 501.207 311.076 490.422 324.592 476.902L329.161 481.451C314.459 496.181 296.93 507.8 277.624 515.61C276.702 515.983 275.758 516.355 274.843 516.702C275.629 516.312 276.289 515.711 276.751 514.966C277.213 514.222 277.457 513.363 277.456 512.488L277.453 508.665Z" fill="white"/>
<path d="M218.999 526.993C198.538 527.02 178.272 523.01 159.368 515.194C140.464 507.379 123.294 495.911 108.844 481.451L113.398 476.902C129.925 493.438 150.135 505.84 172.379 513.095C175.568 515.568 179.164 517.469 183.006 518.714C187.827 520.281 192.868 521.066 197.938 521.039C201.505 521.059 205.066 520.754 208.577 520.126C225.627 521.307 242.754 519.578 259.222 515.014C259.645 515.682 260.232 516.233 260.926 516.614C261.621 516.995 262.401 517.195 263.193 517.194L272.742 517.194C273.162 517.193 273.58 517.137 273.985 517.026C256.412 523.642 237.781 527.019 218.999 526.993Z" fill="white"/>
<path d="M189.01 535.266C188.551 535.411 188.099 535.564 187.651 535.72C154.658 529.466 124.321 513.425 100.603 489.694L105.019 485.29C133.47 513.732 171.588 530.468 211.818 532.181L210.975 532.181C202.782 532.173 195.461 533.202 189.01 535.266Z" fill="white"/>
<path d="M249.917 535.79C249.544 535.66 249.201 535.537 248.835 535.418C242.384 533.252 235.064 532.17 226.874 532.173L226.191 532.173C266.421 530.46 304.539 513.724 332.99 485.282L337.402 489.686C313.579 513.525 283.079 529.6 249.921 535.794L249.917 535.79Z" fill="white"/>
<path d="M258.451 539.658C289.866 532.384 318.602 516.443 341.378 493.654L345.645 497.913C323.377 520.196 295.594 536.195 265.121 544.282C263.046 542.538 260.813 540.99 258.451 539.658Z" fill="white"/>
<path d="M172.67 544.029C172.61 544.077 172.554 544.129 172.494 544.181C142.171 536.058 114.529 520.099 92.3555 497.913L96.6222 493.654C119.287 516.331 147.855 532.228 179.098 539.546C176.817 540.834 174.665 542.334 172.67 544.029Z" fill="white"/>
<path d="M167.825 548.973C166.538 550.543 165.385 552.218 164.376 553.98C158.582 552.254 152.859 550.249 147.204 547.967C123.563 538.404 102.098 524.178 84.0955 506.14L88.2017 502.041C110.745 524.501 138.036 540.481 167.825 548.973Z" fill="white"/>
<path d="M290.781 547.966C285.099 550.267 279.341 552.284 273.505 554.017C272.447 552.265 271.249 550.602 269.921 549.043C299.807 540.556 327.192 524.564 349.769 502.03L353.875 506.128C335.878 524.169 314.418 538.399 290.781 547.966Z" fill="white"/>
<path d="M219 561.909C208.474 561.915 197.965 561.055 187.58 559.338C191.455 557.334 196.308 556.001 202.139 555.341C207.716 555.837 213.34 556.086 219.011 556.086C224.621 556.086 230.189 555.837 235.716 555.341C237.701 555.582 239.668 555.948 241.607 556.436C244.447 557.122 247.201 558.122 249.819 559.417C239.63 561.074 229.324 561.907 219 561.909Z" fill="white"/>
<path d="M161.777 559.424C161.093 561.194 160.538 563.011 160.116 564.86C154.28 563.094 148.518 561.059 142.829 558.754C117.743 548.606 94.9668 533.511 75.8638 514.371L79.8357 510.406C102.67 533.255 130.824 550.097 161.777 559.424Z" fill="white"/>
<path d="M276.203 559.428C307.163 550.102 335.322 533.258 358.16 510.406L362.132 514.371C343.029 533.505 320.254 548.596 295.17 558.739C289.499 561.039 283.754 563.069 277.935 564.831C277.495 562.989 276.916 561.183 276.203 559.428Z" fill="white"/>
<path d="M219 573.548C205.323 573.555 191.679 572.182 178.278 569.45C178.953 567.547 179.964 565.78 181.264 564.234C206.089 569.036 231.605 569.056 256.438 564.293C257.27 565.179 258.006 566.151 258.633 567.192C259.066 567.916 259.44 568.674 259.753 569.457C246.342 572.189 232.688 573.56 219 573.548Z" fill="white"/>
<path d="M278.91 570.982C312.026 561.143 342.154 543.199 366.555 518.782L370.378 522.598C344.978 548.014 313.556 566.613 279.029 576.668C279.052 576.001 279.059 575.327 279.059 574.645C279.059 573.404 279.011 572.186 278.91 570.982Z" fill="white"/>
<path d="M158.941 575.684L158.941 576.66C151.991 574.633 145.149 572.256 138.44 569.54C111.908 558.807 87.8203 542.839 67.6185 522.593L71.441 518.774C95.8569 543.205 126.005 561.156 159.143 570.993C159.008 572.511 158.941 574.074 158.941 575.684Z" fill="white"/>
<path d="M203.423 579.108L203.423 584.63C194.677 584.004 185.977 582.841 177.374 581.146C177.181 579.681 177.085 578.205 177.087 576.727C177.087 576.306 177.087 575.892 177.128 575.486C185.807 577.249 194.59 578.459 203.423 579.108Z" fill="white"/>
<path d="M260.831 575.505C260.836 577.434 260.627 579.357 260.208 581.24C247.053 583.798 233.686 585.122 220.284 585.193L220.284 579.693C233.904 579.615 247.484 578.213 260.831 575.505Z" fill="white"/>
<path d="M278.477 583.579C314.6 573.545 347.708 554.345 374.947 527.157L378.624 530.831C350.613 558.861 315.678 579.004 277.357 589.22C277.846 587.364 278.22 585.48 278.477 583.579Z" fill="white"/>
<path d="M159.355 583.53C159.568 585.449 159.859 587.305 160.229 589.119C122.068 578.869 87.2837 558.77 59.3758 530.842L63.0527 527.169C90.2546 554.301 123.295 573.485 159.355 583.53Z" fill="white"/>
<path d="M198.694 593.389L184.468 593.337C183.63 593.335 182.809 593.11 182.087 592.685C181.365 592.261 180.77 591.652 180.362 590.922L180.254 590.725C179.798 589.866 179.402 588.977 179.067 588.064C186.91 589.482 194.824 590.477 202.774 591.045C202.361 591.76 201.766 592.353 201.05 592.764C200.333 593.176 199.521 593.391 198.694 593.389Z" fill="white"/>
<path d="M256.232 588.546C253.866 590.757 250.597 592.332 246.426 593.271C245.784 593.414 245.18 593.692 244.653 594.085C244.126 594.478 243.689 594.977 243.369 595.551C235.701 596.37 227.996 596.801 220.284 596.84L220.284 591.646C232.331 591.584 244.353 590.547 256.232 588.546Z" fill="white"/>
<path d="M274.55 596.694C315.75 586.661 353.388 565.501 383.339 535.533L386.866 539.058C354.992 570.954 314.644 593.088 270.582 602.849C272.136 600.956 273.467 598.891 274.55 596.694Z" fill="white"/>
<path d="M163.875 601.05C164.036 601.422 164.196 601.795 164.36 602.167C121.469 592.065 82.2534 570.214 51.1292 539.073L54.6606 535.548C84.2871 565.185 121.44 586.211 162.132 596.37C162.662 598.007 163.243 599.567 163.875 601.05Z" fill="white"/>
<path d="M220.284 608.456L220.284 603.363C227.787 603.323 235.282 602.922 242.768 602.159L242.768 607.29C235.327 608.028 227.832 608.416 220.284 608.456Z" fill="white"/>
<path d="M218.999 620.101C186.286 620.143 153.887 613.732 123.663 601.236C93.4402 588.741 65.9888 570.407 42.8866 547.289L46.2687 543.914C79.7822 577.447 122.405 600.444 168.869 610.064C170.016 611.665 171.292 613.171 172.684 614.564C173.57 615.432 174.762 615.917 176.003 615.917L215.572 615.846C216.402 615.845 217.216 615.624 217.931 615.205C226.753 615.245 235.571 614.811 244.346 613.905C244.883 614.386 245.526 614.736 246.222 614.926C246.919 615.116 247.65 615.142 248.359 615C251.63 614.363 254.829 613.4 257.907 612.124C308.608 604.071 355.45 580.193 391.711 543.918L395.093 547.293C371.99 570.41 344.539 588.743 314.316 601.239C284.092 613.734 251.694 620.146 218.98 620.105L218.999 620.101Z" fill="white"/>
<path d="M37.8789 552.288C86.2577 600.576 150.584 627.179 219.001 627.179C287.418 627.179 351.744 600.587 400.123 552.288L403.359 555.518C379.163 579.708 350.426 598.898 318.792 611.992C287.157 625.085 253.247 631.825 219.001 631.825C184.755 631.825 150.844 625.085 119.21 611.992C87.5761 598.898 58.8388 579.708 34.6425 555.518L37.8789 552.288Z" fill="white"/>
<path d="M29.4872 560.665C80.1095 611.188 147.411 639.013 219.001 639.013C290.591 639.013 357.907 611.188 408.514 560.665L411.602 563.746C386.324 589.018 356.301 609.068 323.253 622.747C290.204 636.426 254.777 643.468 218.999 643.468C183.221 643.468 147.794 636.426 114.745 622.747C81.6965 609.068 51.6743 589.018 26.3963 563.746L29.4872 560.665Z" fill="white"/>
<path d="M188.366 443.235C189.297 443.63 190.234 444.003 191.177 444.353C190.391 443.678 189.402 443.284 188.366 443.235ZM274.836 516.699C274.552 516.811 274.269 516.919 273.985 517.023C274.279 516.946 274.564 516.838 274.836 516.703L274.836 516.699Z" fill="white"/>
<path d="M372.532 43.2859C379.854 43.2859 385.79 49.2219 385.79 56.5442L385.79 58.0233C385.79 66.1626 379.192 72.7607 371.053 72.7607L359.274 72.7607L359.274 56.5442C359.274 49.2219 365.21 43.2859 372.532 43.2859Z" stroke="#0857AC" stroke-width="4.57183"/>
<path d="M384.022 83.9971L384.022 93.388C384.022 100.955 379.064 106.184 372.595 106.184L372.53 106.184C366.061 106.184 361.038 100.955 361.038 93.388L361.038 83.9971L384.022 83.9971ZM365.602 93.388C365.602 97.7218 368.392 100.646 372.464 100.646L372.529 100.646C376.601 100.646 379.458 97.7218 379.458 93.388L379.458 89.295L365.601 89.295L365.601 93.388L365.602 93.388Z" fill="#0857AC"/>
<path d="M384.187 115.361L384.187 120.246L361.037 130.565L361.037 125.027L366.192 122.826L366.192 112.644L361.037 110.443L361.037 105.043L384.187 115.361ZM370.659 120.933L378.113 117.734L370.659 114.535L370.659 120.933Z" fill="#0857AC"/>
<path d="M384.022 127.407L379.36 129.486L379.36 134.733L361.037 134.733L361.037 140.029L379.36 140.029L379.36 145.276L384.022 147.355L384.022 127.406L384.022 127.407Z" fill="#0857AC"/>
<path d="M384.187 154.526L384.187 159.411L361.037 169.73L361.037 164.193L366.192 161.991L366.192 151.81L361.037 149.609L361.037 144.208L384.187 154.526ZM370.659 160.099L378.113 156.9L370.659 153.701L370.659 160.099Z" fill="#0857AC"/>
<path d="M384.022 179.889L384.022 185.186L361.037 185.186L361.037 179.889L384.022 179.889Z" fill="#0857AC"/>
<path d="M384.022 189.136L384.022 194.021L369.87 205.304L384.022 205.304L384.022 210.532L361.037 210.532L361.037 206.026L375.649 194.365L361.037 194.365L361.037 189.136L384.022 189.136Z" fill="#0857AC"/>
<path d="M372.466 213.177L372.531 213.177C379.065 213.177 384.418 218.337 384.418 225.733C384.418 230.273 382.973 232.991 380.871 235.227L377.161 231.855C378.77 229.998 379.755 228.106 379.755 225.698C379.755 221.639 376.537 218.715 372.597 218.715L372.531 218.715C368.591 218.715 365.307 221.57 365.307 225.698C365.307 228.45 366.358 230.136 368 232.028L364.749 235.399C362.221 232.922 360.644 230.17 360.644 225.526C360.644 218.441 365.866 213.177 372.465 213.177L372.466 213.177Z" fill="#0857AC"/>
<path d="M366.293 236.811L366.293 242.383L361.039 242.383L361.039 236.811L366.293 236.811Z" fill="#0857AC"/>
<defs>
<linearGradient id="paint0_linear_4335_2223" x1="220.06" y1="0.99999" x2="220.06" y2="688.884" gradientUnits="userSpaceOnUse">
<stop stop-color="#14C9FF"/>
<stop offset="1" stop-color="#92E2FF"/>
</linearGradient>
<linearGradient id="paint1_linear_4335_2223" x1="220.061" y1="53.7258" x2="220.061" y2="250.234" gradientUnits="userSpaceOnUse">
<stop stop-color="#18CAFF"/>
<stop offset="1" stop-color="#90E2FF"/>
</linearGradient>
<linearGradient id="paint2_linear_4335_2223" x1="257.903" y1="118.266" x2="196.273" y2="118.266" gradientUnits="userSpaceOnUse">
<stop stop-color="#FFC45B"/>
<stop offset="0.16" stop-color="#F2B55D"/>
<stop offset="0.43" stop-color="#E3A261"/>
<stop offset="0.71" stop-color="#D99762"/>
<stop offset="1" stop-color="#D69363"/>
</linearGradient>
</defs>
</svg>
