<svg width="280" height="230" viewBox="0 0 280 230" fill="none" xmlns="http://www.w3.org/2000/svg">
<g clip-path="url(#clip0_4335_1737)">
<g clip-path="url(#clip1_4335_1737)">
<path d="M120.038 176.741C119.763 176.467 119.763 176.021 120.038 175.747L123.957 171.828L119.308 167.179L115.389 171.098C115.115 171.373 114.669 171.373 114.395 171.098C114.12 170.824 114.12 170.378 114.395 170.104L118.314 166.185L113.666 161.537L109.747 165.456C109.472 165.73 109.027 165.73 108.752 165.456C108.478 165.181 108.478 164.736 108.752 164.461L112.671 160.542L108.022 155.894L104.103 159.812C103.829 160.087 103.384 160.087 103.109 159.812C102.835 159.538 102.835 159.093 103.109 158.818L107.028 154.899L102.408 150.279C102.22 150.091 101.917 150.091 101.731 150.277L65.2828 186.725C65.0963 186.912 65.0972 187.215 65.2849 187.402L69.9049 192.022L73.8237 188.103C74.0982 187.829 74.5436 187.829 74.8181 188.103C75.0926 188.378 75.0926 188.823 74.8181 189.098L70.8992 193.017L75.548 197.665L79.4669 193.747C79.7414 193.472 80.1868 193.472 80.4613 193.747C80.7358 194.021 80.7358 194.466 80.4613 194.741L76.5424 198.66L81.1906 203.308L85.1094 199.389C85.3839 199.115 85.8293 199.115 86.1038 199.389C86.3783 199.664 86.3783 200.109 86.1038 200.383L82.1849 204.302L86.8337 208.951L90.7526 205.032C91.0271 204.758 91.4725 204.758 91.747 205.032C92.0215 205.307 92.0215 205.752 91.747 206.027L87.8281 209.946L92.4481 214.566C92.6358 214.753 92.9386 214.754 93.1251 214.568L129.573 178.119C129.76 177.933 129.759 177.63 129.571 177.442L124.951 172.822L121.032 176.741C120.758 177.016 120.312 177.016 120.038 176.741ZM117.103 179.666L94.672 202.097L77.753 185.178L94.7166 168.215L105.683 168.247L117.103 179.666Z" fill="url(#paint0_linear_4335_1737)"/>
<path d="M97.4367 173.702L88.8769 182.262C87.8786 183.26 87.8786 184.879 88.8769 185.877L93.9297 190.93C94.9281 191.928 96.5466 191.928 97.5449 190.93L106.105 182.37C107.103 181.372 107.103 179.753 106.105 178.755L101.052 173.702C100.054 172.704 98.435 172.704 97.4367 173.702Z" fill="url(#paint1_linear_4335_1737)"/>
<path d="M106.224 182.489L97.6629 191.05C97.1516 191.56 96.4589 191.846 95.7367 191.846C95.0145 191.846 94.3218 191.56 93.8105 191.05L88.7572 185.997C88.2472 185.485 87.9608 184.793 87.9608 184.071C87.9608 183.348 88.2472 182.656 88.7572 182.144L97.318 173.584C97.8291 173.073 98.5221 172.786 99.2447 172.785C99.9674 172.785 100.661 173.071 101.172 173.582L106.226 178.635C106.736 179.147 107.022 179.84 107.022 180.563C107.022 181.285 106.734 181.978 106.224 182.489ZM88.9949 182.382C88.5477 182.83 88.2966 183.437 88.2966 184.071C88.2966 184.704 88.5477 185.311 88.9949 185.759L94.0482 190.812C94.4963 191.26 95.1036 191.511 95.7367 191.511C96.3698 191.511 96.977 191.26 97.4252 190.812L105.986 182.252C106.433 181.803 106.684 181.196 106.684 180.563C106.684 179.93 106.433 179.323 105.986 178.875L100.933 173.821C100.484 173.374 99.8772 173.123 99.2441 173.123C98.611 173.123 98.0038 173.374 97.5556 173.821L88.9949 182.382Z" fill="black"/>
<path d="M95.9647 181.429L90.198 187.196C90.1828 187.213 90.1642 187.227 90.1434 187.237C90.1226 187.247 90.1 187.252 90.077 187.253C90.054 187.254 90.031 187.25 90.0096 187.241C89.9882 187.233 89.9688 187.22 89.9525 187.204C89.9362 187.187 89.9234 187.168 89.915 187.147C89.9065 187.125 89.9025 187.102 89.9033 187.079C89.904 187.056 89.9095 187.034 89.9193 187.013C89.9291 186.992 89.9431 186.973 89.9604 186.958L95.7271 181.191C95.7805 181.138 95.8104 181.065 95.8104 180.989C95.8103 180.914 95.7801 180.841 95.7266 180.788L95.0103 180.071C94.982 180.039 94.967 179.997 94.9684 179.955C94.9698 179.912 94.9874 179.871 95.0177 179.841C95.0479 179.811 95.0885 179.793 95.1313 179.792C95.1741 179.79 95.2157 179.805 95.2479 179.834L95.9637 180.549C96.0795 180.667 96.1445 180.824 96.1447 180.989C96.1449 181.154 96.0802 181.312 95.9647 181.429Z" fill="black"/>
<path d="M105.027 177.675L92.8519 189.85C92.8367 189.867 92.8181 189.881 92.7973 189.891C92.7765 189.901 92.7539 189.906 92.7308 189.907C92.7078 189.908 92.6849 189.904 92.6635 189.895C92.6421 189.887 92.6226 189.874 92.6064 189.858C92.5901 189.841 92.5773 189.822 92.5689 189.8C92.5604 189.779 92.5564 189.756 92.5571 189.733C92.5579 189.71 92.5633 189.687 92.5732 189.667C92.583 189.646 92.597 189.627 92.6143 189.612L104.789 177.437C104.804 177.42 104.823 177.406 104.844 177.396C104.865 177.386 104.887 177.381 104.91 177.38C104.933 177.379 104.956 177.383 104.978 177.392C104.999 177.4 105.018 177.413 105.035 177.429C105.051 177.445 105.064 177.465 105.072 177.486C105.081 177.508 105.085 177.531 105.084 177.554C105.083 177.577 105.078 177.599 105.068 177.62C105.058 177.641 105.044 177.66 105.027 177.675Z" fill="black"/>
<path d="M95.2487 180.071C95.219 180.101 95.1794 180.119 95.1375 180.121L91.0106 180.311C90.9879 180.314 90.965 180.311 90.9433 180.304C90.9216 180.297 90.9016 180.286 90.8844 180.271C90.8672 180.256 90.8533 180.238 90.8433 180.217C90.8334 180.197 90.8278 180.174 90.8268 180.151C90.8257 180.129 90.8293 180.106 90.8373 180.085C90.8453 180.063 90.8576 180.044 90.8734 180.027C90.8891 180.011 90.9081 179.998 90.929 179.989C90.95 179.98 90.9726 179.975 90.9953 179.975L94.9717 179.794L95.1527 175.818C95.1567 175.775 95.1772 175.735 95.2098 175.707C95.2425 175.678 95.2848 175.664 95.328 175.665C95.3712 175.667 95.412 175.686 95.442 175.717C95.4719 175.748 95.4887 175.79 95.4888 175.833L95.2979 179.96C95.2959 180.002 95.2783 180.042 95.2487 180.071Z" fill="black"/>
<path d="M99.972 184.798C99.9405 184.83 99.8979 184.847 99.8533 184.847C99.8088 184.848 99.766 184.83 99.7344 184.799L98.6963 183.76C98.679 183.745 98.665 183.727 98.6552 183.706C98.6454 183.685 98.6399 183.662 98.6392 183.639C98.6384 183.616 98.6424 183.594 98.6509 183.572C98.6593 183.551 98.6721 183.531 98.6884 183.515C98.7047 183.499 98.7241 183.486 98.7455 183.477C98.7669 183.469 98.7899 183.465 98.8129 183.466C98.8359 183.466 98.8585 183.472 98.8793 183.482C98.9001 183.492 98.9187 183.506 98.9339 183.523L99.9706 184.56C99.9865 184.575 99.9991 184.594 100.008 184.614C100.016 184.634 100.021 184.656 100.021 184.679C100.021 184.701 100.017 184.723 100.009 184.743C100 184.764 99.9877 184.782 99.972 184.798Z" fill="black"/>
<path d="M104.103 184.61C104.073 184.639 104.033 184.657 103.992 184.659L100.016 184.84L99.8342 188.816C99.8342 188.839 99.8297 188.862 99.8207 188.883C99.8118 188.903 99.7987 188.922 99.7823 188.938C99.7658 188.954 99.7463 188.966 99.725 188.974C99.7037 188.982 99.6809 188.986 99.6582 188.985C99.6354 188.984 99.6131 188.978 99.5926 188.968C99.5721 188.958 99.5538 188.944 99.5388 188.927C99.5238 188.91 99.5125 188.89 99.5055 188.868C99.4985 188.847 99.496 188.824 99.4982 188.801L99.689 184.674C99.691 184.632 99.7085 184.593 99.7382 184.563C99.7679 184.533 99.8075 184.516 99.8494 184.514L103.976 184.323C104.021 184.321 104.064 184.337 104.097 184.367C104.13 184.397 104.149 184.439 104.151 184.483C104.153 184.507 104.149 184.53 104.141 184.552C104.132 184.573 104.119 184.593 104.103 184.61Z" fill="black"/>
<path d="M97.0893 185.611C97.0579 185.643 97.0152 185.66 96.9708 185.66C96.9263 185.66 96.8836 185.643 96.8522 185.611L94.1954 182.954C94.1672 182.922 94.1522 182.881 94.1536 182.838C94.1549 182.795 94.1725 182.754 94.2028 182.724C94.2331 182.694 94.2737 182.676 94.3165 182.675C94.3592 182.674 94.4009 182.689 94.433 182.717L97.0898 185.374C97.1212 185.405 97.1387 185.448 97.1386 185.492C97.1385 185.537 97.1208 185.58 97.0893 185.611Z" fill="black"/>
<path d="M100.786 181.915C100.77 181.93 100.752 181.942 100.731 181.95C100.711 181.959 100.689 181.963 100.667 181.963C100.645 181.962 100.623 181.958 100.603 181.949C100.582 181.94 100.564 181.928 100.549 181.912L98.2155 179.579C98.0998 179.462 98.035 179.304 98.035 179.139C98.035 178.975 98.0998 178.816 98.2155 178.699L102.133 174.782C102.148 174.764 102.167 174.75 102.188 174.74C102.209 174.731 102.231 174.725 102.254 174.724C102.277 174.724 102.3 174.728 102.322 174.736C102.343 174.745 102.363 174.757 102.379 174.774C102.395 174.79 102.408 174.809 102.416 174.831C102.425 174.852 102.429 174.875 102.428 174.898C102.427 174.921 102.422 174.944 102.412 174.965C102.402 174.985 102.388 175.004 102.371 175.019L98.4516 178.938C98.3982 178.992 98.3682 179.065 98.3682 179.141C98.3682 179.216 98.3982 179.289 98.4516 179.343L100.785 181.676C100.801 181.691 100.813 181.71 100.822 181.73C100.831 181.751 100.835 181.773 100.835 181.795C100.835 181.817 100.831 181.839 100.823 181.86C100.814 181.88 100.802 181.899 100.786 181.915Z" fill="black"/>
<path d="M76.5817 180.269C76.0809 179.768 76.0809 178.956 76.5817 178.456L76.6828 178.354C77.2395 177.798 78.142 177.798 78.6986 178.354L79.5042 179.16L78.3951 180.269C77.8944 180.77 77.0825 180.77 76.5817 180.269Z" stroke="#0857AC" stroke-width="0.442172"/>
<path d="M78.6777 176.747L79.3253 176.1C79.8471 175.578 80.5618 175.572 81.0238 176.034L81.0285 176.038C81.4905 176.5 81.4888 177.22 80.967 177.742L80.3195 178.389L78.6777 176.747ZM80.6411 177.416C80.9399 177.117 80.9422 176.716 80.6514 176.425L80.6467 176.42C80.3559 176.129 79.9501 176.127 79.6513 176.426L79.3691 176.708L80.3589 177.698L80.6411 177.416L80.6411 177.416Z" fill="#0857AC"/>
<path d="M80.8286 174.573L81.1654 174.236L83.5306 175.178L83.1487 175.56L82.6288 175.343L81.9267 176.045L82.1431 176.565L81.7708 176.938L80.8286 174.573ZM82.1792 175.155L81.4262 174.843L81.738 175.596L82.1792 175.155Z" fill="#0857AC"/>
<path d="M81.671 173.754L82.1473 173.944L82.5091 173.582L83.8179 174.891L84.1831 174.525L82.8743 173.217L83.2361 172.855L83.0464 172.378L81.6709 173.754L81.671 173.754Z" fill="#0857AC"/>
<path d="M83.5289 171.872L83.8657 171.535L86.2308 172.477L85.849 172.859L85.329 172.643L84.6269 173.345L84.8434 173.865L84.471 174.237L83.5289 171.872ZM84.8794 172.454L84.1264 172.142L84.4383 172.895L84.8794 172.454Z" fill="#0857AC"/>
<path d="M85.29 170.135L85.6553 169.77L87.2971 171.412L86.9319 171.777L85.29 170.135Z" fill="#0857AC"/>
<path d="M85.9277 169.498L86.2646 169.161L88.0534 169.394L87.0425 168.383L87.4031 168.022L89.0449 169.664L88.7342 169.975L86.8864 169.735L87.9301 170.779L87.5696 171.139L85.9277 169.498Z" fill="#0857AC"/>
<path d="M88.4104 168.665L88.4057 168.661C87.939 168.194 87.9125 167.456 88.4224 166.946C88.7355 166.633 89.026 166.548 89.3303 166.544L89.3629 167.042C89.1199 167.055 88.9191 167.115 88.753 167.281C88.4732 167.561 88.5014 167.993 88.7829 168.274L88.7876 168.279C89.069 168.56 89.5004 168.598 89.785 168.313C89.9748 168.123 90.016 167.932 90.0292 167.684L90.4938 167.684C90.5037 168.036 90.4265 168.338 90.1063 168.658C89.6177 169.147 88.8818 169.137 88.4104 168.665L88.4104 168.665Z" fill="#0857AC"/>
<path d="M90.4814 167.477L90.8657 167.092L91.241 167.468L90.8567 167.852L90.4814 167.477Z" fill="#0857AC"/>
</g>
<g clip-path="url(#clip2_4335_1737)">
<path d="M163.038 179.745C162.763 179.471 162.763 179.025 163.038 178.751L166.957 174.832L162.308 170.183L158.389 174.102C158.115 174.377 157.669 174.377 157.395 174.102C157.12 173.828 157.12 173.382 157.395 173.108L161.314 169.189L156.666 164.541L152.747 168.46C152.472 168.734 152.027 168.734 151.752 168.46C151.478 168.185 151.478 167.74 151.752 167.465L155.671 163.546L151.022 158.897L147.103 162.816C146.829 163.091 146.384 163.091 146.109 162.816C145.835 162.542 145.835 162.096 146.109 161.822L150.028 157.903L145.408 153.283C145.22 153.095 144.917 153.095 144.731 153.281L108.283 189.729C108.096 189.916 108.097 190.219 108.285 190.406L112.905 195.026L116.824 191.107C117.098 190.833 117.544 190.833 117.818 191.107C118.093 191.382 118.093 191.827 117.818 192.102L113.899 196.021L118.548 200.669L122.467 196.75C122.741 196.476 123.187 196.476 123.461 196.75C123.736 197.025 123.736 197.47 123.461 197.745L119.542 201.664L124.191 206.312L128.109 202.393C128.384 202.119 128.829 202.119 129.104 202.393C129.378 202.667 129.378 203.113 129.104 203.387L125.185 207.306L129.834 211.955L133.753 208.036C134.027 207.762 134.472 207.762 134.747 208.036C135.021 208.311 135.021 208.756 134.747 209.031L130.828 212.949L135.448 217.569C135.636 217.757 135.939 217.758 136.125 217.571L172.573 181.123C172.76 180.937 172.759 180.634 172.571 180.446L167.951 175.826L164.032 179.745C163.758 180.02 163.312 180.02 163.038 179.745ZM160.103 182.67L137.672 205.101L120.753 188.182L137.717 171.219L148.683 171.25L160.103 182.67Z" fill="url(#paint2_linear_4335_1737)"/>
<path d="M140.437 176.706L131.877 185.266C130.879 186.264 130.879 187.883 131.877 188.881L136.93 193.934C137.928 194.932 139.547 194.932 140.545 193.934L149.105 185.374C150.103 184.376 150.103 182.757 149.105 181.759L144.052 176.706C143.054 175.708 141.435 175.708 140.437 176.706Z" fill="url(#paint3_linear_4335_1737)"/>
<path d="M149.224 185.493L140.663 194.054C140.152 194.564 139.459 194.85 138.737 194.85C138.015 194.85 137.322 194.564 136.811 194.054L131.757 189.001C131.247 188.489 130.961 187.797 130.961 187.074C130.961 186.352 131.247 185.66 131.757 185.148L140.318 176.588C140.829 176.077 141.522 175.79 142.245 175.789C142.967 175.789 143.661 176.075 144.172 176.586L149.226 181.639C149.736 182.151 150.022 182.844 150.022 183.566C150.022 184.289 149.734 184.982 149.224 185.493ZM131.995 185.386C131.548 185.834 131.297 186.441 131.297 187.074C131.297 187.708 131.548 188.315 131.995 188.763L137.048 193.816C137.496 194.263 138.104 194.515 138.737 194.515C139.37 194.515 139.977 194.263 140.425 193.816L148.986 185.256C149.433 184.807 149.684 184.2 149.684 183.567C149.684 182.934 149.433 182.327 148.986 181.878L143.933 176.825C143.484 176.378 142.877 176.127 142.244 176.127C141.611 176.127 141.004 176.378 140.556 176.825L131.995 185.386Z" fill="black"/>
<path d="M138.965 184.433L133.198 190.2C133.183 190.217 133.164 190.231 133.143 190.241C133.123 190.251 133.1 190.256 133.077 190.257C133.054 190.258 133.031 190.254 133.01 190.245C132.988 190.237 132.969 190.224 132.952 190.208C132.936 190.191 132.923 190.172 132.915 190.15C132.907 190.129 132.903 190.106 132.903 190.083C132.904 190.06 132.909 190.038 132.919 190.017C132.929 189.996 132.943 189.977 132.96 189.962L138.727 184.195C138.781 184.142 138.81 184.069 138.81 183.993C138.81 183.918 138.78 183.845 138.727 183.791L138.01 183.075C137.982 183.043 137.967 183.001 137.968 182.959C137.97 182.916 137.987 182.875 138.018 182.845C138.048 182.815 138.089 182.797 138.131 182.796C138.174 182.794 138.216 182.809 138.248 182.837L138.964 183.553C139.08 183.67 139.145 183.828 139.145 183.993C139.145 184.158 139.08 184.316 138.965 184.433Z" fill="black"/>
<path d="M148.027 180.679L135.852 192.854C135.837 192.871 135.818 192.885 135.797 192.895C135.776 192.905 135.754 192.91 135.731 192.911C135.708 192.911 135.685 192.907 135.664 192.899C135.642 192.891 135.623 192.878 135.606 192.861C135.59 192.845 135.577 192.826 135.569 192.804C135.56 192.783 135.556 192.76 135.557 192.737C135.558 192.714 135.563 192.691 135.573 192.671C135.583 192.65 135.597 192.631 135.614 192.616L147.789 180.441C147.804 180.424 147.823 180.41 147.844 180.4C147.865 180.39 147.887 180.385 147.91 180.384C147.933 180.383 147.956 180.387 147.978 180.396C147.999 180.404 148.018 180.417 148.035 180.433C148.051 180.449 148.064 180.469 148.072 180.49C148.081 180.512 148.085 180.535 148.084 180.558C148.083 180.581 148.078 180.603 148.068 180.624C148.058 180.645 148.044 180.663 148.027 180.679Z" fill="black"/>
<path d="M138.249 183.075C138.219 183.105 138.179 183.122 138.137 183.124L134.011 183.315C133.988 183.317 133.965 183.315 133.943 183.308C133.922 183.301 133.902 183.29 133.884 183.275C133.867 183.26 133.853 183.241 133.843 183.221C133.833 183.2 133.828 183.178 133.827 183.155C133.826 183.133 133.829 183.11 133.837 183.089C133.845 183.067 133.858 183.048 133.873 183.031C133.889 183.015 133.908 183.002 133.929 182.993C133.95 182.984 133.973 182.979 133.995 182.979L137.972 182.798L138.153 178.822C138.157 178.779 138.177 178.739 138.21 178.711C138.242 178.682 138.285 178.667 138.328 178.669C138.371 178.671 138.412 178.69 138.442 178.721C138.472 178.752 138.489 178.794 138.489 178.837L138.298 182.964C138.296 183.006 138.278 183.046 138.249 183.075Z" fill="black"/>
<path d="M142.972 187.802C142.941 187.834 142.898 187.851 142.853 187.851C142.809 187.851 142.766 187.834 142.734 187.803L141.696 186.764C141.679 186.749 141.665 186.731 141.655 186.71C141.645 186.689 141.64 186.666 141.639 186.643C141.638 186.62 141.642 186.597 141.651 186.576C141.659 186.555 141.672 186.535 141.688 186.519C141.705 186.503 141.724 186.49 141.746 186.481C141.767 186.473 141.79 186.469 141.813 186.47C141.836 186.47 141.858 186.476 141.879 186.486C141.9 186.495 141.919 186.509 141.934 186.527L142.971 187.563C142.986 187.579 142.999 187.597 143.008 187.618C143.016 187.638 143.021 187.66 143.021 187.682C143.021 187.705 143.017 187.727 143.009 187.747C143 187.768 142.988 187.786 142.972 187.802Z" fill="black"/>
<path d="M147.103 187.614C147.073 187.643 147.033 187.661 146.992 187.663L143.016 187.844L142.834 191.82C142.834 191.843 142.83 191.865 142.821 191.886C142.812 191.907 142.799 191.926 142.782 191.942C142.766 191.958 142.746 191.97 142.725 191.978C142.704 191.986 142.681 191.99 142.658 191.989C142.635 191.988 142.613 191.982 142.593 191.972C142.572 191.962 142.554 191.948 142.539 191.931C142.524 191.914 142.513 191.894 142.506 191.872C142.499 191.85 142.496 191.828 142.498 191.805L142.689 187.678C142.691 187.636 142.709 187.596 142.738 187.567C142.768 187.537 142.808 187.52 142.849 187.518L146.976 187.327C147.021 187.325 147.064 187.341 147.097 187.371C147.13 187.401 147.149 187.443 147.151 187.487C147.153 187.51 147.149 187.534 147.141 187.556C147.132 187.577 147.119 187.597 147.103 187.614Z" fill="black"/>
<path d="M140.089 188.615C140.058 188.647 140.015 188.664 139.971 188.664C139.926 188.664 139.884 188.647 139.852 188.615L137.195 185.958C137.167 185.926 137.152 185.885 137.154 185.842C137.155 185.799 137.173 185.758 137.203 185.728C137.233 185.698 137.274 185.68 137.316 185.679C137.359 185.677 137.401 185.692 137.433 185.721L140.09 188.377C140.121 188.409 140.139 188.452 140.139 188.496C140.139 188.541 140.121 188.584 140.089 188.615Z" fill="black"/>
<path d="M143.786 184.918C143.77 184.934 143.752 184.946 143.731 184.954C143.711 184.963 143.689 184.967 143.667 184.967C143.645 184.966 143.623 184.962 143.603 184.953C143.582 184.944 143.564 184.932 143.549 184.916L141.215 182.583C141.1 182.466 141.035 182.308 141.035 182.143C141.035 181.978 141.1 181.82 141.215 181.703L145.133 177.785C145.148 177.768 145.167 177.754 145.188 177.744C145.209 177.735 145.231 177.729 145.254 177.728C145.277 177.728 145.3 177.732 145.322 177.74C145.343 177.748 145.363 177.761 145.379 177.778C145.395 177.794 145.408 177.813 145.416 177.835C145.425 177.856 145.429 177.879 145.428 177.902C145.427 177.925 145.422 177.948 145.412 177.968C145.402 177.989 145.388 178.008 145.371 178.023L141.452 181.942C141.398 181.996 141.368 182.069 141.368 182.145C141.368 182.22 141.398 182.293 141.452 182.347L143.785 184.68C143.801 184.695 143.813 184.714 143.822 184.734C143.831 184.755 143.835 184.777 143.835 184.799C143.835 184.821 143.831 184.843 143.823 184.864C143.814 184.884 143.802 184.903 143.786 184.918Z" fill="black"/>
<path d="M119.582 183.273C119.081 182.772 119.081 181.96 119.582 181.459L119.683 181.358C120.239 180.802 121.142 180.802 121.699 181.358L122.504 182.164L121.395 183.273C120.894 183.774 120.082 183.774 119.582 183.273Z" stroke="#0857AC" stroke-width="0.442172"/>
<path d="M121.678 179.751L122.325 179.104C122.847 178.582 123.562 178.575 124.024 179.038L124.028 179.042C124.491 179.504 124.489 180.224 123.967 180.745L123.319 181.393L121.678 179.751ZM123.641 180.419C123.94 180.121 123.942 179.72 123.651 179.429L123.647 179.424C123.356 179.133 122.95 179.131 122.651 179.43L122.369 179.712L123.359 180.702L123.641 180.42L123.641 180.419Z" fill="#0857AC"/>
<path d="M123.829 177.577L124.165 177.24L126.531 178.182L126.149 178.564L125.629 178.347L124.927 179.049L125.143 179.569L124.771 179.942L123.829 177.577ZM125.179 178.159L124.426 177.847L124.738 178.6L125.179 178.159Z" fill="#0857AC"/>
<path d="M124.671 176.758L125.147 176.947L125.509 176.586L126.818 177.894L127.183 177.529L125.874 176.22L126.236 175.859L126.046 175.382L124.671 176.758L124.671 176.758Z" fill="#0857AC"/>
<path d="M126.529 174.876L126.866 174.539L129.231 175.481L128.849 175.863L128.329 175.647L127.627 176.349L127.843 176.869L127.471 177.241L126.529 174.876ZM127.879 175.458L127.126 175.146L127.438 175.899L127.879 175.458Z" fill="#0857AC"/>
<path d="M128.29 173.139L128.655 172.774L130.297 174.415L129.932 174.781L128.29 173.139Z" fill="#0857AC"/>
<path d="M128.928 172.501L129.265 172.165L131.053 172.398L130.043 171.387L130.403 171.026L132.045 172.668L131.734 172.979L129.886 172.739L130.93 173.783L130.57 174.143L128.928 172.501Z" fill="#0857AC"/>
<path d="M131.41 171.669L131.406 171.664C130.939 171.198 130.912 170.46 131.422 169.95C131.735 169.637 132.026 169.552 132.33 169.548L132.363 170.046C132.12 170.059 131.919 170.119 131.753 170.285C131.473 170.565 131.501 170.997 131.783 171.278L131.788 171.283C132.069 171.564 132.5 171.602 132.785 171.317C132.975 171.127 133.016 170.936 133.029 170.688L133.494 170.688C133.504 171.039 133.426 171.342 133.106 171.662C132.618 172.151 131.882 172.141 131.41 171.669L131.41 171.669Z" fill="#0857AC"/>
<path d="M133.481 170.48L133.866 170.096L134.241 170.472L133.857 170.856L133.481 170.48Z" fill="#0857AC"/>
</g>
<g clip-path="url(#clip3_4335_1737)">
<path d="M206.038 182.745C205.763 182.471 205.763 182.026 206.038 181.751L209.957 177.832L205.308 173.183L201.389 177.102C201.115 177.377 200.669 177.377 200.395 177.102C200.12 176.828 200.12 176.382 200.395 176.108L204.314 172.189L199.666 167.541L195.747 171.46C195.472 171.734 195.027 171.734 194.752 171.46C194.478 171.185 194.478 170.74 194.752 170.465L198.671 166.547L194.022 161.898L190.103 165.817C189.829 166.091 189.384 166.091 189.109 165.817C188.835 165.542 188.835 165.097 189.109 164.822L193.028 160.903L188.408 156.283C188.22 156.096 187.917 156.095 187.731 156.281L151.283 192.729C151.096 192.916 151.097 193.219 151.285 193.406L155.905 198.026L159.824 194.108C160.098 193.833 160.544 193.833 160.818 194.108C161.093 194.382 161.093 194.827 160.818 195.102L156.899 199.021L161.548 203.67L165.467 199.751C165.741 199.476 166.187 199.476 166.461 199.751C166.736 200.025 166.736 200.471 166.461 200.745L162.542 204.664L167.191 209.312L171.109 205.393C171.384 205.119 171.829 205.119 172.104 205.393C172.378 205.668 172.378 206.113 172.104 206.388L168.185 210.307L172.834 214.955L176.753 211.036C177.027 210.762 177.472 210.762 177.747 211.036C178.021 211.311 178.021 211.756 177.747 212.031L173.828 215.95L178.448 220.57C178.636 220.757 178.939 220.758 179.125 220.572L215.573 184.124C215.76 183.937 215.759 183.634 215.571 183.447L210.951 178.827L207.032 182.745C206.758 183.02 206.312 183.02 206.038 182.745ZM203.103 185.67L180.672 208.102L163.753 191.183L180.717 174.219L191.683 174.251L203.103 185.67Z" fill="url(#paint4_linear_4335_1737)"/>
<path d="M183.436 179.706L174.876 188.266C173.878 189.264 173.878 190.883 174.876 191.881L179.929 196.934C180.927 197.932 182.546 197.932 183.544 196.934L192.104 188.374C193.102 187.376 193.102 185.757 192.104 184.759L187.051 179.706C186.053 178.708 184.434 178.708 183.436 179.706Z" fill="url(#paint5_linear_4335_1737)"/>
<path d="M192.223 188.493L183.662 197.054C183.151 197.564 182.458 197.851 181.736 197.851C181.014 197.851 180.321 197.564 179.81 197.054L174.756 192.001C174.246 191.49 173.96 190.797 173.96 190.075C173.96 189.353 174.246 188.66 174.756 188.149L183.317 179.588C183.828 179.077 184.521 178.79 185.244 178.789C185.966 178.789 186.66 179.075 187.171 179.586L192.225 184.639C192.735 185.151 193.021 185.844 193.021 186.567C193.021 187.289 192.733 187.982 192.223 188.493ZM174.994 188.386C174.547 188.834 174.296 189.442 174.296 190.075C174.296 190.708 174.547 191.315 174.994 191.763L180.047 196.817C180.495 197.264 181.103 197.515 181.736 197.515C182.369 197.515 182.976 197.264 183.424 196.817L191.985 188.256C192.432 187.808 192.683 187.2 192.683 186.567C192.683 185.934 192.432 185.327 191.985 184.879L186.932 179.825C186.484 179.378 185.876 179.127 185.243 179.127C184.61 179.127 184.003 179.378 183.555 179.825L174.994 188.386Z" fill="black"/>
<path d="M181.964 187.433L176.197 193.2C176.182 193.217 176.163 193.231 176.142 193.241C176.122 193.251 176.099 193.256 176.076 193.257C176.053 193.258 176.03 193.254 176.009 193.245C175.987 193.237 175.968 193.224 175.952 193.208C175.935 193.192 175.922 193.172 175.914 193.151C175.906 193.129 175.902 193.106 175.902 193.083C175.903 193.06 175.908 193.038 175.918 193.017C175.928 192.996 175.942 192.978 175.959 192.962L181.726 187.196C181.78 187.142 181.809 187.069 181.809 186.994C181.809 186.918 181.779 186.845 181.726 186.792L181.009 186.075C180.981 186.043 180.966 186.002 180.967 185.959C180.969 185.916 180.986 185.875 181.017 185.845C181.047 185.815 181.088 185.797 181.13 185.796C181.173 185.795 181.215 185.809 181.247 185.838L181.963 186.554C182.079 186.671 182.144 186.829 182.144 186.993C182.144 187.158 182.079 187.316 181.964 187.433Z" fill="black"/>
<path d="M191.026 183.679L178.851 195.854C178.836 195.871 178.817 195.885 178.796 195.895C178.775 195.905 178.753 195.91 178.73 195.911C178.707 195.912 178.684 195.908 178.663 195.899C178.641 195.891 178.622 195.878 178.605 195.862C178.589 195.845 178.576 195.826 178.568 195.805C178.559 195.783 178.555 195.76 178.556 195.737C178.557 195.714 178.562 195.692 178.572 195.671C178.582 195.65 178.596 195.631 178.613 195.616L190.788 183.441C190.803 183.424 190.822 183.41 190.843 183.4C190.864 183.39 190.886 183.385 190.909 183.384C190.932 183.383 190.955 183.387 190.977 183.396C190.998 183.404 191.017 183.417 191.034 183.433C191.05 183.45 191.063 183.469 191.071 183.49C191.08 183.512 191.084 183.535 191.083 183.558C191.082 183.581 191.077 183.603 191.067 183.624C191.057 183.645 191.043 183.664 191.026 183.679Z" fill="black"/>
<path d="M181.248 186.076C181.218 186.105 181.178 186.123 181.136 186.125L177.01 186.316C176.987 186.318 176.964 186.315 176.942 186.308C176.921 186.301 176.901 186.29 176.883 186.275C176.866 186.26 176.852 186.242 176.842 186.221C176.832 186.201 176.827 186.178 176.826 186.156C176.825 186.133 176.828 186.11 176.836 186.089C176.844 186.067 176.857 186.048 176.872 186.031C176.888 186.015 176.907 186.002 176.928 185.993C176.949 185.984 176.972 185.98 176.994 185.98L180.971 185.799L181.152 181.822C181.156 181.779 181.176 181.739 181.209 181.711C181.241 181.682 181.284 181.668 181.327 181.67C181.37 181.672 181.411 181.69 181.441 181.721C181.471 181.753 181.488 181.794 181.488 181.837L181.297 185.964C181.295 186.006 181.277 186.046 181.248 186.076Z" fill="black"/>
<path d="M185.971 190.802C185.94 190.834 185.897 190.851 185.852 190.852C185.808 190.852 185.765 190.834 185.733 190.803L184.695 189.765C184.678 189.749 184.664 189.731 184.654 189.71C184.644 189.689 184.639 189.667 184.638 189.644C184.637 189.621 184.641 189.598 184.65 189.576C184.658 189.555 184.671 189.535 184.687 189.519C184.704 189.503 184.723 189.49 184.745 189.482C184.766 189.473 184.789 189.469 184.812 189.47C184.835 189.471 184.858 189.476 184.878 189.486C184.899 189.496 184.918 189.51 184.933 189.527L185.97 190.564C185.985 190.579 185.998 190.598 186.007 190.618C186.016 190.639 186.02 190.66 186.02 190.683C186.02 190.705 186.016 190.727 186.008 190.747C185.999 190.768 185.987 190.787 185.971 190.802Z" fill="black"/>
<path d="M190.102 190.614C190.072 190.643 190.032 190.661 189.991 190.663L186.015 190.845L185.833 194.82C185.833 194.843 185.829 194.866 185.82 194.887C185.811 194.908 185.798 194.927 185.781 194.942C185.765 194.958 185.745 194.97 185.724 194.978C185.703 194.986 185.68 194.99 185.657 194.989C185.634 194.988 185.612 194.982 185.592 194.972C185.571 194.962 185.553 194.948 185.538 194.931C185.523 194.914 185.512 194.894 185.505 194.872C185.498 194.851 185.495 194.828 185.497 194.805L185.688 190.678C185.69 190.636 185.708 190.597 185.737 190.567C185.767 190.537 185.807 190.52 185.848 190.518L189.975 190.327C190.02 190.325 190.063 190.341 190.096 190.371C190.129 190.401 190.148 190.443 190.15 190.487C190.152 190.511 190.148 190.534 190.14 190.556C190.131 190.578 190.118 190.597 190.102 190.614Z" fill="black"/>
<path d="M183.089 191.615C183.058 191.647 183.015 191.664 182.971 191.664C182.926 191.664 182.884 191.647 182.852 191.615L180.195 188.959C180.167 188.926 180.152 188.885 180.154 188.842C180.155 188.799 180.173 188.759 180.203 188.728C180.233 188.698 180.274 188.68 180.316 188.679C180.359 188.678 180.401 188.693 180.433 188.721L183.09 191.378C183.121 191.409 183.139 191.452 183.139 191.497C183.139 191.541 183.121 191.584 183.089 191.615Z" fill="black"/>
<path d="M186.786 187.919C186.77 187.934 186.752 187.946 186.731 187.955C186.711 187.963 186.689 187.967 186.667 187.967C186.645 187.967 186.623 187.962 186.603 187.953C186.582 187.945 186.564 187.932 186.549 187.916L184.215 185.583C184.1 185.466 184.035 185.308 184.035 185.143C184.035 184.979 184.1 184.821 184.215 184.703L188.133 180.786C188.148 180.768 188.167 180.754 188.188 180.745C188.209 180.735 188.231 180.729 188.254 180.729C188.277 180.728 188.3 180.732 188.322 180.74C188.343 180.749 188.363 180.762 188.379 180.778C188.395 180.794 188.408 180.814 188.416 180.835C188.425 180.856 188.429 180.879 188.428 180.902C188.427 180.925 188.422 180.948 188.412 180.969C188.402 180.99 188.388 181.008 188.371 181.023L184.452 184.943C184.398 184.996 184.368 185.069 184.368 185.145C184.368 185.221 184.398 185.293 184.452 185.347L186.785 187.68C186.801 187.696 186.813 187.714 186.822 187.734C186.831 187.755 186.835 187.777 186.835 187.799C186.835 187.821 186.831 187.843 186.823 187.864C186.814 187.884 186.802 187.903 186.786 187.919Z" fill="black"/>
<path d="M162.583 186.273C162.082 185.772 162.082 184.961 162.583 184.46L162.684 184.359C163.24 183.802 164.143 183.802 164.7 184.359L165.505 185.164L164.396 186.273C163.895 186.774 163.083 186.774 162.583 186.273Z" stroke="#0857AC" stroke-width="0.442172"/>
<path d="M164.678 182.751L165.325 182.104C165.847 181.582 166.562 181.576 167.024 182.038L167.028 182.042C167.491 182.505 167.489 183.224 166.967 183.746L166.319 184.393L164.678 182.751ZM166.641 183.42C166.94 183.121 166.942 182.72 166.651 182.429L166.647 182.424C166.356 182.134 165.95 182.131 165.651 182.43L165.369 182.712L166.359 183.702L166.641 183.42L166.641 183.42Z" fill="#0857AC"/>
<path d="M166.829 180.577L167.165 180.24L169.531 181.182L169.149 181.564L168.629 181.347L167.927 182.05L168.143 182.57L167.771 182.942L166.829 180.577ZM168.179 181.159L167.426 180.847L167.738 181.6L168.179 181.159Z" fill="#0857AC"/>
<path d="M167.672 179.758L168.148 179.948L168.51 179.586L169.819 180.895L170.184 180.529L168.875 179.221L169.237 178.859L169.047 178.383L167.672 179.758L167.672 179.758Z" fill="#0857AC"/>
<path d="M169.53 177.876L169.867 177.54L172.232 178.482L171.85 178.863L171.33 178.647L170.628 179.349L170.844 179.869L170.472 180.241L169.53 177.876ZM170.88 178.458L170.127 178.147L170.439 178.9L170.88 178.458Z" fill="#0857AC"/>
<path d="M171.291 176.139L171.656 175.774L173.298 177.416L172.933 177.781L171.291 176.139Z" fill="#0857AC"/>
<path d="M171.928 175.502L172.265 175.165L174.053 175.398L173.043 174.387L173.403 174.026L175.045 175.668L174.734 175.979L172.886 175.739L173.93 176.783L173.57 177.144L171.928 175.502Z" fill="#0857AC"/>
<path d="M174.412 174.669L174.408 174.665C173.941 174.198 173.914 173.46 174.424 172.95C174.737 172.637 175.028 172.553 175.332 172.549L175.365 173.046C175.122 173.059 174.921 173.119 174.755 173.285C174.475 173.565 174.503 173.997 174.785 174.278L174.79 174.283C175.071 174.564 175.502 174.602 175.787 174.317C175.977 174.128 176.018 173.936 176.031 173.689L176.496 173.688C176.506 174.04 176.428 174.342 176.108 174.662C175.62 175.151 174.884 175.141 174.412 174.669L174.412 174.669Z" fill="#0857AC"/>
<path d="M176.482 173.481L176.867 173.096L177.242 173.472L176.858 173.856L176.482 173.481Z" fill="#0857AC"/>
</g>
<path d="M225.855 137L225.855 23C225.855 18.5817 222.274 15 217.855 15L62.0038 15C57.5855 15 54.0038 18.5817 54.0038 23L54.0037 137C54.0037 141.418 57.5855 145 62.0038 145L217.855 145C222.274 145 225.855 141.418 225.855 137Z" fill="url(#paint6_linear_4335_1737)"/>
<path d="M220.459 121.741C223.439 121.741 225.855 124.157 225.855 127.138C225.855 130.119 223.439 132.535 220.459 132.535L207.589 132.535C206.601 132.535 205.653 132.143 204.955 131.444C204.256 130.745 203.863 129.797 203.863 128.809L203.863 125.467C203.863 124.479 204.256 123.531 204.955 122.833C205.653 122.134 206.601 121.741 207.589 121.741L220.459 121.741Z" fill="#00C4FF"/>
<path d="M220.459 90.3145C223.439 90.3145 225.855 92.7307 225.855 95.7114C225.855 98.692 223.439 101.108 220.459 101.108L207.589 101.108C206.601 101.108 205.653 100.716 204.955 100.017C204.256 99.3182 203.863 98.3705 203.863 97.3823L203.863 94.0404C203.863 93.0522 204.256 92.1045 204.955 91.4057C205.653 90.707 206.601 90.3145 207.589 90.3145L220.459 90.3145Z" fill="#00C4FF"/>
<path d="M220.459 58.8906C223.439 58.8906 225.855 61.3069 225.855 64.2876C225.855 67.2682 223.439 69.6845 220.459 69.6845L207.589 69.6845C206.601 69.6845 205.653 69.2919 204.955 68.5931C204.256 67.8944 203.863 66.9467 203.863 65.9585L203.863 62.6166C203.863 61.6284 204.256 60.6807 204.955 59.982C205.653 59.2832 206.601 58.8906 207.589 58.8906L220.459 58.8906Z" fill="#00C4FF"/>
<path d="M220.459 27.4639C223.439 27.4639 225.855 29.8801 225.855 32.8608C225.855 35.8414 223.439 38.2577 220.459 38.2577L207.589 38.2577C206.601 38.2577 205.653 37.8651 204.955 37.1664C204.256 36.4676 203.863 35.5199 203.863 34.5317L203.863 31.1898C203.863 30.2016 204.256 29.2539 204.955 28.5552C205.653 27.8564 206.601 27.4639 207.589 27.4639L220.459 27.4639Z" fill="#00C4FF"/>
<path d="M59.3969 38.2617C56.4163 38.2617 54 35.8454 54 32.8648C54 29.8842 56.4163 27.4679 59.3969 27.4679L72.2499 27.4679C73.238 27.4679 74.1857 27.8604 74.8845 28.5592C75.5832 29.258 75.9758 30.2057 75.9758 31.1939L75.9758 34.5358C75.9758 35.5239 75.5832 36.4717 74.8845 37.1704C74.1857 37.8692 73.238 38.2617 72.2499 38.2617L59.3969 38.2617Z" fill="#00C4FF"/>
<path d="M59.3969 69.6836C56.4163 69.6836 54 67.2673 54 64.2867C54 61.306 56.4163 58.8897 59.3969 58.8897L72.2499 58.8897C73.238 58.8897 74.1857 59.2823 74.8845 59.9811C75.5832 60.6798 75.9758 61.6275 75.9758 62.6157L75.9758 65.9576C75.9758 66.9458 75.5832 67.8935 74.8845 68.5923C74.1857 69.291 73.238 69.6836 72.2499 69.6836L59.3969 69.6836Z" fill="#00C4FF"/>
<path d="M59.3969 101.109C56.4163 101.109 54 98.6931 54 95.7125C54 92.7318 56.4163 90.3156 59.3969 90.3156L72.2499 90.3156C73.238 90.3156 74.1857 90.7081 74.8845 91.4069C75.5832 92.1056 75.9758 93.0533 75.9758 94.0415L75.9758 97.3834C75.9758 98.3716 75.5832 99.3193 74.8845 100.018C74.1857 100.717 73.238 101.109 72.2499 101.109L59.3969 101.109Z" fill="#00C4FF"/>
<path d="M59.3969 132.534C56.4163 132.534 54 130.118 54 127.137C54 124.157 56.4163 121.74 59.3969 121.74L72.2499 121.74C73.238 121.74 74.1857 122.133 74.8845 122.832C75.5832 123.53 75.9758 124.478 75.9758 125.466L75.9758 128.808C75.9758 129.796 75.5832 130.744 74.8845 131.443C74.1857 132.142 73.238 132.534 72.2499 132.534L59.3969 132.534Z" fill="#00C4FF"/>
<path d="M192.24 47.056C193.742 48.5565 194.586 50.5926 194.586 52.7158L194.586 114.468C194.586 118.887 191.004 122.468 186.586 122.468L93.2748 122.468C88.8565 122.468 85.2748 118.887 85.2748 114.468L85.2748 45.5517C85.2748 41.1335 88.8565 37.5518 93.2748 37.5518L179.415 37.5518C181.535 37.5518 183.568 38.3935 185.068 39.892L192.24 47.056Z" fill="url(#paint7_linear_4335_1737)"/>
<path d="M162.715 56.6426L117.259 56.6426C111.958 56.6426 107.66 61.0025 107.66 66.3808V93.6021C107.66 98.9804 111.958 103.34 117.259 103.34H162.715C168.017 103.34 172.314 98.9804 172.314 93.6021V66.3808C172.314 61.0025 168.017 56.6426 162.715 56.6426Z" fill="url(#paint8_linear_4335_1737)"/>
<path d="M162.721 103.981H117.26C114.548 103.977 111.949 102.883 110.031 100.938C108.113 98.9923 107.035 96.355 107.031 93.6039V66.3799C107.035 63.6288 108.113 60.9914 110.031 59.0461C111.949 57.1008 114.548 56.0064 117.26 56.0029L162.721 56.0029C165.435 56.0036 168.037 57.0968 169.957 59.0424C171.877 60.988 172.957 63.627 172.96 66.3799V93.6039C172.957 96.3568 171.877 98.9958 169.957 100.941C168.037 102.887 165.435 103.98 162.721 103.981ZM117.26 57.2831C114.883 57.2859 112.604 58.2453 110.923 59.9506C109.242 61.656 108.296 63.9681 108.293 66.3799V93.6039C108.296 96.0156 109.242 98.3278 110.923 100.033C112.604 101.739 114.883 102.698 117.26 102.701H162.721C165.099 102.698 167.378 101.739 169.059 100.033C170.74 98.3278 171.685 96.0156 171.688 93.6039V66.3799C171.685 63.9681 170.74 61.656 169.059 59.9506C167.378 58.2453 165.099 57.2859 162.721 57.2831L117.26 57.2831Z" fill="black"/>
<path d="M138.297 73.4912H107.673C107.587 73.4968 107.5 73.4844 107.419 73.4548C107.337 73.4252 107.263 73.379 107.2 73.319C107.137 73.259 107.086 73.1865 107.052 73.106C107.018 73.0255 107 72.9388 107 72.8511C107 72.7633 107.018 72.6766 107.052 72.5961C107.086 72.5156 107.137 72.4431 107.2 72.3832C107.263 72.3232 107.337 72.2769 107.419 72.2473C107.5 72.2177 107.587 72.2053 107.673 72.211H138.297C138.581 72.2103 138.853 72.0952 139.054 71.8909C139.255 71.6867 139.368 71.41 139.368 71.1216V67.2623C139.378 67.0997 139.449 66.9471 139.566 66.8356C139.683 66.7241 139.838 66.6621 139.999 66.6621C140.159 66.6621 140.314 66.7241 140.431 66.8356C140.548 66.9471 140.619 67.0997 140.63 67.2623V71.1189C140.626 71.7461 140.379 72.3467 139.943 72.7906C139.506 73.2346 138.915 73.4863 138.297 73.4912Z" fill="black"/>
<path d="M172.327 87.7874L107.673 87.7874C107.587 87.793 107.5 87.7807 107.419 87.7511C107.337 87.7214 107.263 87.6752 107.2 87.6152C107.137 87.5552 107.086 87.4827 107.052 87.4023C107.018 87.3218 107 87.235 107 87.1473C107 87.0596 107.018 86.9728 107.052 86.8923C107.086 86.8119 107.137 86.7394 107.2 86.6794C107.263 86.6194 107.337 86.5732 107.419 86.5436C107.5 86.5139 107.587 86.5015 107.673 86.5072L172.327 86.5072C172.413 86.5015 172.5 86.5139 172.581 86.5436C172.663 86.5732 172.737 86.6194 172.8 86.6794C172.863 86.7394 172.914 86.8119 172.948 86.8923C172.982 86.9728 173 87.0596 173 87.1473C173 87.235 172.982 87.3218 172.948 87.4023C172.914 87.4827 172.863 87.5552 172.8 87.6152C172.737 87.6752 172.663 87.7214 172.581 87.7511C172.5 87.7807 172.413 87.793 172.327 87.7874Z" fill="black"/>
<path d="M140.01 67.9044C139.852 67.9045 139.7 67.845 139.584 67.7375L128.119 57.1352C128.053 57.0798 127.999 57.0113 127.96 56.9341C127.921 56.8568 127.898 56.7724 127.892 56.6858C127.886 56.5992 127.898 56.5123 127.926 56.4303C127.954 56.3483 127.998 56.273 128.056 56.2089C128.114 56.1448 128.184 56.0933 128.262 56.0574C128.339 56.0215 128.424 56.002 128.509 56.0001C128.595 55.9983 128.68 56.0141 128.759 56.0465C128.839 56.079 128.911 56.1274 128.971 56.1889L140.01 66.4122L151.048 56.1889C151.173 56.0837 151.334 56.0313 151.496 56.0427C151.658 56.0541 151.809 56.1284 151.919 56.2501C152.029 56.3718 152.088 56.5316 152.084 56.6964C152.081 56.8612 152.015 57.0184 151.9 57.1352L140.436 67.7375C140.319 67.845 140.167 67.9045 140.01 67.9044Z" fill="black"/>
<path d="M139.993 93.3607C139.826 93.3607 139.665 93.2934 139.547 93.1737C139.428 93.054 139.361 92.8915 139.361 92.7219V87.1292C139.355 87.0416 139.367 86.9539 139.397 86.8713C139.426 86.7888 139.471 86.7132 139.53 86.6492C139.59 86.5852 139.661 86.5342 139.74 86.4994C139.82 86.4645 139.905 86.4465 139.992 86.4465C140.078 86.4465 140.164 86.4645 140.243 86.4994C140.322 86.5342 140.394 86.5852 140.453 86.6492C140.512 86.7132 140.558 86.7888 140.587 86.8713C140.616 86.9539 140.628 87.0416 140.623 87.1292V92.7139C140.624 92.7985 140.608 92.8824 140.577 92.9608C140.546 93.0392 140.5 93.1106 140.441 93.1708C140.382 93.2309 140.313 93.2787 140.236 93.3113C140.159 93.3439 140.076 93.3607 139.993 93.3607Z" fill="black"/>
<path d="M151.455 103.978C151.297 103.977 151.146 103.918 151.029 103.811L139.99 93.5902L128.951 103.811C128.891 103.872 128.819 103.921 128.74 103.953C128.66 103.986 128.575 104.001 128.49 104C128.404 103.998 128.32 103.978 128.242 103.942C128.164 103.906 128.094 103.855 128.036 103.791C127.979 103.727 127.934 103.651 127.906 103.569C127.878 103.487 127.867 103.401 127.873 103.314C127.879 103.227 127.902 103.143 127.941 103.066C127.98 102.988 128.034 102.92 128.1 102.865L139.564 92.2623C139.681 92.1546 139.833 92.095 139.99 92.095C140.148 92.095 140.3 92.1546 140.416 92.2623L151.881 102.865C152.004 102.979 152.077 103.139 152.084 103.308C152.091 103.478 152.032 103.643 151.92 103.768C151.861 103.835 151.79 103.888 151.71 103.924C151.629 103.96 151.543 103.978 151.455 103.978Z" fill="black"/>
<path d="M130.173 87.7864C130.006 87.7864 129.845 87.7191 129.727 87.5994C129.609 87.4796 129.543 87.3171 129.543 87.1477V72.8346C129.553 72.672 129.624 72.5194 129.741 72.4079C129.859 72.2964 130.013 72.2344 130.174 72.2344C130.335 72.2344 130.489 72.2964 130.606 72.4079C130.724 72.5194 130.795 72.672 130.805 72.8346V87.1477C130.804 87.3173 130.737 87.4798 130.619 87.5995C130.5 87.7192 130.34 87.7864 130.173 87.7864Z" fill="black"/>
<path d="M149.812 87.7878C149.729 87.7871 149.647 87.7698 149.571 87.7369C149.495 87.704 149.425 87.6561 149.367 87.596C149.309 87.536 149.264 87.4648 149.233 87.3868C149.202 87.3087 149.187 87.2252 149.188 87.1411V74.5721C149.192 73.9449 149.439 73.3446 149.876 72.9012C150.313 72.4577 150.905 72.2067 151.523 72.2025H172.328C172.415 72.1969 172.501 72.2092 172.582 72.2389C172.664 72.2685 172.738 72.3147 172.801 72.3747C172.865 72.4347 172.915 72.5072 172.949 72.5877C172.984 72.6681 173.001 72.7549 173.001 72.8426C173.001 72.9303 172.984 73.0171 172.949 73.0976C172.915 73.1781 172.865 73.2505 172.801 73.3105C172.738 73.3705 172.664 73.4168 172.582 73.4464C172.501 73.476 172.415 73.4883 172.328 73.4827H151.515C151.231 73.4834 150.958 73.5984 150.757 73.8026C150.556 74.0067 150.442 74.2834 150.442 74.5721V87.1411C150.443 87.2256 150.427 87.3096 150.396 87.388C150.365 87.4664 150.319 87.5378 150.26 87.5979C150.201 87.6581 150.132 87.7058 150.055 87.7384C149.978 87.771 149.895 87.7878 149.812 87.7878Z" fill="black"/>
<path d="M112.625 24.7024C112.625 22.6993 114.249 21.0755 116.252 21.0755L116.657 21.0755C118.883 21.0755 120.688 22.8805 120.688 25.107L120.688 28.3293L116.252 28.3293C114.249 28.3293 112.625 26.7055 112.625 24.7024Z" stroke="#0857AC" stroke-width="1.25065"/>
<path d="M123.859 21.8506L126.45 21.8506C128.537 21.8506 129.979 23.2672 129.979 25.1154L129.979 25.1341C129.979 26.9824 128.537 28.4176 126.45 28.4176L123.859 28.4176L123.859 21.8506ZM126.45 27.1137C127.645 27.1137 128.451 26.3163 128.451 25.153L128.451 25.1344C128.451 23.971 127.645 23.1547 126.45 23.1547L125.321 23.1547L125.321 27.114L126.45 27.114L126.45 27.1137Z" fill="#0857AC"/>
<path d="M132.51 21.8035L133.857 21.8035L136.703 28.4178L135.176 28.4178L134.569 26.9449L131.761 26.9449L131.153 28.4178L129.664 28.4178L132.51 21.8035ZM134.047 25.6687L133.164 23.539L132.282 25.6687L134.047 25.6687Z" fill="#0857AC"/>
<path d="M135.832 21.8506L136.406 23.1826L137.853 23.1826L137.853 28.4179L139.314 28.4179L139.314 23.1826L140.761 23.1826L141.334 21.8506L135.832 21.8506L135.832 21.8506Z" fill="#0857AC"/>
<path d="M143.312 21.8035L144.659 21.8035L147.505 28.4178L145.978 28.4178L145.371 26.9449L142.563 26.9449L141.956 28.4178L140.466 28.4178L143.312 21.8035ZM144.849 25.6687L143.966 23.539L143.084 25.6687L144.849 25.6687Z" fill="#0857AC"/>
<path d="M150.308 21.8506L151.769 21.8506L151.769 28.4179L150.308 28.4179L150.308 21.8506Z" fill="#0857AC"/>
<path d="M152.858 21.8506L154.206 21.8506L157.318 25.8942L157.318 21.8506L158.76 21.8506L158.76 28.4179L157.517 28.4179L154.301 24.2429L154.301 28.4179L152.858 28.4179L152.858 21.8506Z" fill="#0857AC"/>
<path d="M159.488 25.1524L159.488 25.1338C159.488 23.2669 160.912 21.7375 162.951 21.7375C164.204 21.7375 164.953 22.1503 165.57 22.7509L164.64 23.811C164.128 23.3512 163.606 23.0698 162.942 23.0698C161.822 23.0698 161.016 23.9893 161.016 25.1151L161.016 25.1338C161.016 26.2595 161.803 27.1977 162.942 27.1977C163.701 27.1977 164.166 26.8974 164.687 26.4285L165.617 27.3572C164.934 28.0797 164.175 28.53 162.894 28.53C160.94 28.53 159.488 27.0382 159.488 25.1527L159.488 25.1524Z" fill="#0857AC"/>
<path d="M166.008 26.916L167.545 26.916L167.545 28.4172L166.008 28.4172L166.008 26.916Z" fill="#0857AC"/>
</g>
<defs>
<linearGradient id="paint0_linear_4335_1737" x1="115.99" y1="163.861" x2="78.8665" y2="200.984" gradientUnits="userSpaceOnUse">
<stop stop-color="#07A5FE"/>
<stop offset="1" stop-color="#9EDFFF"/>
</linearGradient>
<linearGradient id="paint1_linear_4335_1737" x1="93.5952" y1="178.42" x2="101.718" y2="186.543" gradientUnits="userSpaceOnUse">
<stop stop-color="#FFC45B"/>
<stop offset="0.16" stop-color="#F2B55D"/>
<stop offset="0.43" stop-color="#E3A261"/>
<stop offset="0.71" stop-color="#D99762"/>
<stop offset="1" stop-color="#D69363"/>
</linearGradient>
<linearGradient id="paint2_linear_4335_1737" x1="158.99" y1="166.865" x2="121.866" y2="203.988" gradientUnits="userSpaceOnUse">
<stop stop-color="#07A5FE"/>
<stop offset="1" stop-color="#9EDFFF"/>
</linearGradient>
<linearGradient id="paint3_linear_4335_1737" x1="136.595" y1="181.424" x2="144.718" y2="189.547" gradientUnits="userSpaceOnUse">
<stop stop-color="#FFC45B"/>
<stop offset="0.16" stop-color="#F2B55D"/>
<stop offset="0.43" stop-color="#E3A261"/>
<stop offset="0.71" stop-color="#D99762"/>
<stop offset="1" stop-color="#D69363"/>
</linearGradient>
<linearGradient id="paint4_linear_4335_1737" x1="201.99" y1="169.865" x2="164.866" y2="206.988" gradientUnits="userSpaceOnUse">
<stop stop-color="#07A5FE"/>
<stop offset="1" stop-color="#9EDFFF"/>
</linearGradient>
<linearGradient id="paint5_linear_4335_1737" x1="179.594" y1="184.425" x2="187.717" y2="192.547" gradientUnits="userSpaceOnUse">
<stop stop-color="#FFC45B"/>
<stop offset="0.16" stop-color="#F2B55D"/>
<stop offset="0.43" stop-color="#E3A261"/>
<stop offset="0.71" stop-color="#D99762"/>
<stop offset="1" stop-color="#D69363"/>
</linearGradient>
<linearGradient id="paint6_linear_4335_1737" x1="139.93" y1="15" x2="139.93" y2="145" gradientUnits="userSpaceOnUse">
<stop stop-color="#0EC6FF"/>
<stop offset="1" stop-color="#C1EDFF"/>
</linearGradient>
<linearGradient id="paint7_linear_4335_1737" x1="199.444" y1="80.004" x2="68.937" y2="80.004" gradientUnits="userSpaceOnUse">
<stop stop-color="#0AACDD"/>
<stop offset="0.2" stop-color="#07AADB"/>
<stop offset="0.46" stop-color="#07AADB"/>
<stop offset="0.77" stop-color="#0BACDD"/>
<stop offset="0.9" stop-color="#00A5D8"/>
<stop offset="1" stop-color="#B7EBFF"/>
</linearGradient>
<linearGradient id="paint8_linear_4335_1737" x1="139.987" y1="59.0042" x2="139.987" y2="102.765" gradientUnits="userSpaceOnUse">
<stop stop-color="#FFC45B"/>
<stop offset="0.16" stop-color="#F2B55D"/>
<stop offset="0.43" stop-color="#E3A261"/>
<stop offset="0.71" stop-color="#D99762"/>
<stop offset="1" stop-color="#D69363"/>
</linearGradient>
<clipPath id="clip0_4335_1737">
<rect width="280" height="228.941" fill="white" transform="translate(0 0.852539)"/>
</clipPath>
<clipPath id="clip1_4335_1737">
<rect width="60" height="60" fill="white" transform="translate(55 182.422) rotate(-45)"/>
</clipPath>
<clipPath id="clip2_4335_1737">
<rect width="60" height="60" fill="white" transform="translate(98 185.426) rotate(-45)"/>
</clipPath>
<clipPath id="clip3_4335_1737">
<rect width="60" height="60" fill="white" transform="translate(141 188.426) rotate(-45)"/>
</clipPath>
</defs>
</svg>
